<?xml version="1.0" encoding="UTF-8" standalone="no"?>
<svg
   xmlns:dc="http://purl.org/dc/elements/1.1/"
   xmlns:cc="http://creativecommons.org/ns#"
   xmlns:rdf="http://www.w3.org/1999/02/22-rdf-syntax-ns#"
   xmlns:svg="http://www.w3.org/2000/svg"
   xmlns="http://www.w3.org/2000/svg"
   xmlns:sodipodi="http://sodipodi.sourceforge.net/DTD/sodipodi-0.dtd"
   xmlns:inkscape="http://www.inkscape.org/namespaces/inkscape"
   viewBox="0 0 746.66663 746.66663"
   height="746.66663"
   width="746.66663"
   xml:space="preserve"
   id="svg22096"
   version="1.1"
   sodipodi:docname="light.svg"
   inkscape:version="0.92.0 r"><sodipodi:namedview
     pagecolor="#ffffff"
     bordercolor="#666666"
     borderopacity="1"
     objecttolerance="10"
     gridtolerance="10"
     guidetolerance="10"
     inkscape:pageopacity="0"
     inkscape:pageshadow="2"
     inkscape:window-width="834"
     inkscape:window-height="480"
     id="namedview15296"
     showgrid="false"
     fit-margin-top="0"
     fit-margin-left="0"
     fit-margin-right="0"
     fit-margin-bottom="0"
     inkscape:zoom="0.295"
     inkscape:cx="373.33293"
     inkscape:cy="373.33333"
     inkscape:window-x="0"
     inkscape:window-y="0"
     inkscape:window-maximized="0"
     inkscape:current-layer="svg22096" /><metadata
     id="metadata22102"><rdf:RDF><cc:Work
         rdf:about=""><dc:format>image/svg+xml</dc:format><dc:type
           rdf:resource="http://purl.org/dc/dcmitype/StillImage" /><dc:title></dc:title></cc:Work></rdf:RDF></metadata><defs
     id="defs22100"><clipPath
       id="clipPath22112"
       clipPathUnits="userSpaceOnUse"><path
         id="path22110"
         d="M 0,600 H 600 V 0 H 0 Z"
         inkscape:connector-curvature="0" /></clipPath></defs><g
     transform="matrix(1.3333333,0,0,-1.3333333,-26.667066,773.33331)"
     id="g22104"><g
       id="g22106"><g
         clip-path="url(#clipPath22112)"
         id="g22108"><g
           transform="translate(300.0003,28)"
           id="g22114"><path
             id="path22116"
             style="fill:#eca610;fill-opacity:1;fill-rule:nonzero;stroke:none"
             d="M 0,0 C -72.654,0 -140.959,28.293 -192.333,79.667 -243.707,131.041 -272,199.347 -272,272 c 0,72.653 28.293,140.959 79.667,192.333 C -140.959,515.707 -72.654,544 0,544 72.653,544 140.959,515.707 192.333,464.333 243.707,412.959 272,344.653 272,272 272,199.347 243.707,131.041 192.333,79.667 140.959,28.293 72.653,0 0,0"
             inkscape:connector-curvature="0" /></g><g
           transform="translate(300.0003,580)"
           id="g22118"><path
             id="path22120"
             style="fill:#ffffff;fill-opacity:1;fill-rule:nonzero;stroke:none"
             d="m 0,0 c -37.793,0 -74.464,-7.405 -108.994,-22.011 -33.344,-14.102 -63.286,-34.29 -88.996,-59.999 -25.709,-25.71 -45.897,-55.652 -60,-88.997 -14.605,-34.529 -22.01,-71.2 -22.01,-108.993 0,-37.793 7.405,-74.464 22.01,-108.993 14.103,-33.345 34.291,-63.287 60,-88.997 25.71,-25.709 55.652,-45.896 88.996,-59.999 C -74.464,-552.595 -37.793,-560 0,-560 c 37.792,0 74.463,7.405 108.993,22.011 33.344,14.103 63.287,34.29 88.996,59.999 25.71,25.71 45.897,55.652 60,88.997 14.606,34.529 22.011,71.2 22.011,108.993 0,37.793 -7.405,74.464 -22.011,108.993 -14.103,33.345 -34.29,63.287 -60,88.997 -25.709,25.709 -55.652,45.897 -88.996,59.999 C 74.463,-7.405 37.792,0 0,0 m 0,-16 c 145.803,0 264,-118.196 264,-264 0,-145.803 -118.197,-264 -264,-264 -145.804,0 -264,118.197 -264,264 0,145.804 118.196,264 264,264"
             inkscape:connector-curvature="0" /></g><g
           transform="translate(420.6917,263.3271)"
           id="g22122"><path
             id="path22124"
             style="fill:#ffffff;fill-opacity:1;fill-rule:nonzero;stroke:none"
             d="m 0,0 -9.044,27.255 23.505,9.418 -23.504,9.418 9.042,27.252 61.997,-36.673 z m 8.504,-92.473 -69.776,17.889 12.869,25.65 23.279,-9.961 -9.961,23.28 25.675,12.882 z m -129.142,-53.492 -36.693,61.957 27.222,9.032 9.418,-23.503 9.417,23.503 27.262,-9.045 z m -129.142,53.492 17.848,69.718 25.633,-12.86 -9.96,-23.28 23.279,9.961 12.875,-25.661 z m -53.492,129.143 61.897,36.648 9.034,-27.228 -23.504,-9.417 23.504,-9.417 -9.035,-27.232 z m 53.492,129.142 69.674,-17.875 -12.874,-25.658 -23.279,9.961 9.96,-23.279 -25.634,-12.86 z m 129.142,53.493 36.625,-61.939 -27.26,-9.046 -9.418,23.505 -9.418,-23.505 -27.221,9.033 z m 66.4,-155.106 14.078,32.9 26.922,-15.926 -7.78,-30.284 z m 0,-55.053 33.22,13.311 7.78,-30.287 -26.922,-15.924 z m -38.928,-38.927 32.902,-14.078 -15.909,-26.906 -30.302,7.769 z m -55.052,0 13.31,-33.217 -30.267,-7.766 -15.936,26.909 z m -38.927,38.927 -14.076,-32.895 -26.889,15.92 7.753,30.283 z m 0,55.053 -33.212,-13.307 -7.753,30.281 26.889,15.921 z m 38.927,38.928 -32.893,14.074 15.935,26.906 30.267,-7.764 z m 55.052,0 -13.308,33.213 30.302,7.767 15.908,-26.902 z m 101.67,62.685 -17.913,-69.733 -25.676,12.882 9.961,23.279 -23.279,-9.961 -12.868,25.648 z M 98.306,42.036 5.124,88.788 37.955,187.735 c 0.715,2.155 0.153,4.528 -1.452,6.132 -1.605,1.605 -3.98,2.171 -6.132,1.452 l -98.947,-32.831 -46.752,93.183 c -1.019,2.029 -3.094,3.309 -5.363,3.309 -2.27,0 -4.345,-1.28 -5.364,-3.309 l -46.752,-93.183 -98.947,32.831 c -2.153,0.718 -4.528,0.153 -6.132,-1.452 -1.605,-1.604 -2.167,-3.977 -1.452,-6.132 l 32.83,-98.948 -93.181,-46.751 c -2.03,-1.018 -3.31,-3.094 -3.31,-5.363 0,-2.27 1.28,-4.345 3.31,-5.363 l 93.181,-46.751 -32.83,-98.949 c -0.715,-2.154 -0.153,-4.527 1.452,-6.131 1.605,-1.605 3.978,-2.169 6.132,-1.453 l 98.947,32.831 46.752,-93.182 c 1.019,-2.029 3.094,-3.31 5.364,-3.31 2.269,0 4.344,1.281 5.363,3.31 l 46.751,93.182 98.948,-32.831 c 0.619,-0.206 1.257,-0.305 1.889,-0.305 1.566,0 3.1,0.614 4.243,1.758 1.605,1.604 2.167,3.977 1.452,6.131 L 5.123,-15.442 98.306,31.31 c 2.029,1.018 3.309,3.093 3.309,5.363 0,2.269 -1.28,4.345 -3.309,5.363"
             inkscape:connector-curvature="0" /></g></g></g></g></svg>