<?xml version="1.0" encoding="UTF-8" standalone="no"?>
<svg
   xmlns:dc="http://purl.org/dc/elements/1.1/"
   xmlns:cc="http://creativecommons.org/ns#"
   xmlns:rdf="http://www.w3.org/1999/02/22-rdf-syntax-ns#"
   xmlns:svg="http://www.w3.org/2000/svg"
   xmlns="http://www.w3.org/2000/svg"
   xmlns:sodipodi="http://sodipodi.sourceforge.net/DTD/sodipodi-0.dtd"
   xmlns:inkscape="http://www.inkscape.org/namespaces/inkscape"
   viewBox="0 0 771.59534 771.59332"
   height="771.59332"
   width="771.59534"
   xml:space="preserve"
   id="svg14829"
   version="1.1"
   sodipodi:docname="muddle.svg"
   inkscape:version="0.92.0 r"><sodipodi:namedview
     pagecolor="#ffffff"
     bordercolor="#666666"
     borderopacity="1"
     objecttolerance="10"
     gridtolerance="10"
     guidetolerance="10"
     inkscape:pageopacity="0"
     inkscape:pageshadow="2"
     inkscape:window-width="834"
     inkscape:window-height="480"
     id="namedview17125"
     showgrid="false"
     fit-margin-top="0"
     fit-margin-left="0"
     fit-margin-right="0"
     fit-margin-bottom="0"
     inkscape:zoom="0.295"
     inkscape:cx="385.79767"
     inkscape:cy="385.79667"
     inkscape:window-x="0"
     inkscape:window-y="0"
     inkscape:window-maximized="0"
     inkscape:current-layer="svg14829" /><metadata
     id="metadata14835"><rdf:RDF><cc:Work
         rdf:about=""><dc:format>image/svg+xml</dc:format><dc:type
           rdf:resource="http://purl.org/dc/dcmitype/StillImage" /><dc:title></dc:title></cc:Work></rdf:RDF></metadata><defs
     id="defs14833"><clipPath
       id="clipPath14845"
       clipPathUnits="userSpaceOnUse"><path
         id="path14843"
         d="M 0,600 H 600 V 0 H 0 Z"
         inkscape:connector-curvature="0" /></clipPath></defs><g
     transform="matrix(1.3333333,0,0,-1.3333333,-14.202333,785.79665)"
     id="g14837"><g
       id="g14839"><g
         clip-path="url(#clipPath14845)"
         id="g14841"><g
           transform="translate(300,15.6523)"
           id="g14847"><path
             id="path14849"
             style="fill:#694e3b;fill-opacity:1;fill-rule:nonzero;stroke:none"
             d="m 0,0 c -3.921,0 -7.608,1.527 -10.381,4.3 l -269.667,269.666 c -5.724,5.724 -5.724,15.039 0,20.763 l 269.667,269.667 c 2.773,2.772 6.46,4.299 10.381,4.299 3.922,0 7.608,-1.527 10.382,-4.299 L 280.048,294.729 c 5.723,-5.724 5.723,-15.039 0,-20.763 L 10.382,4.3 C 7.608,1.527 3.922,0 0,0"
             inkscape:connector-curvature="0" /></g><g
           transform="translate(300,589.3475)"
           id="g14851"><path
             id="path14853"
             style="fill:#ffffff;fill-opacity:1;fill-rule:nonzero;stroke:none"
             d="m 0,0 c -5.037,0 -10.074,-1.921 -13.917,-5.765 l -269.666,-269.666 c -7.687,-7.686 -7.687,-20.147 0,-27.834 l 269.666,-269.666 c 3.843,-3.842 8.88,-5.764 13.917,-5.764 5.037,0 10.073,1.922 13.917,5.764 l 269.666,269.666 c 7.687,7.687 7.687,20.148 0,27.834 L 13.917,-5.765 C 10.073,-1.921 5.037,0 0,0 m 0,-10 c 2.586,0 5.018,-1.007 6.846,-2.835 l 269.667,-269.667 c 1.828,-1.828 2.835,-4.26 2.835,-6.846 0,-2.586 -1.007,-5.016 -2.836,-6.845 L 6.846,-565.859 c -1.828,-1.829 -4.26,-2.836 -6.846,-2.836 -2.586,0 -5.017,1.007 -6.846,2.836 l -269.666,269.666 c -1.829,1.829 -2.836,4.259 -2.836,6.845 0,2.586 1.007,5.018 2.836,6.846 L -6.846,-12.835 C -5.017,-11.007 -2.586,-10 0,-10"
             inkscape:connector-curvature="0" /></g><g
           transform="translate(264.9463,153.5556)"
           id="g14855"><path
             id="path14857"
             style="fill:#ffffff;fill-opacity:1;fill-rule:nonzero;stroke:none"
             d="m 0,0 -2.483,23.845 c -0.081,0.782 5.073,3.751 15.468,8.921 10.391,5.164 16.435,7.836 18.132,8.012 1.693,0.176 4.398,-1.782 8.119,-5.871 3.718,-4.095 5.824,-8.482 6.313,-13.173 l 2.972,-28.536 c 0.082,-0.781 -4.885,-3.73 -14.883,-8.859 -10.006,-5.122 -16.178,-7.81 -18.524,-8.054 -2.345,-0.244 -5.259,1.762 -8.725,6.006 C 2.914,-13.458 0.787,-7.556 0,0 m 19.184,271.088 3.338,-32.054 c 0.624,-5.997 0.014,-10.272 -1.824,-12.834 -1.845,-2.563 -4.378,-4.804 -7.598,-6.719 l -38.619,-23.779 -6.042,4.902 c 6.222,8.552 8.872,17.255 7.949,26.117 l -4.641,44.563 c -0.163,1.564 12.915,9.378 39.245,23.449 26.324,14.066 41.897,21.355 46.722,21.857 4.819,0.502 12.001,-4.615 21.553,-15.339 9.545,-10.73 14.645,-19.219 15.296,-25.474 l 7.043,-67.625 c 0.707,-6.78 -4.665,-16.557 -16.109,-29.338 -11.448,-12.788 -23,-23.869 -34.669,-33.246 l -17.501,-14.072 1.14,-10.945 c 0.842,-8.08 2.868,-14.26 6.078,-18.531 3.212,-4.278 6.274,-6.527 9.199,-6.748 l 3.991,-0.374 0.896,-8.599 C 30.896,68.812 18.117,59.972 16.297,59.782 14.471,59.592 10.067,62.03 3.088,67.1 -3.898,72.165 -7.67,77.438 -8.239,82.911 l -5.496,52.773 c -0.299,2.864 7.548,10.331 23.548,22.406 15.993,12.069 27.558,21.837 34.684,29.296 7.127,7.46 10.445,13.535 9.957,18.225 l -4.723,45.345 c -1.194,11.464 -3.14,19.361 -5.827,23.694 -2.691,4.326 -6.576,6.23 -11.657,5.701 -5.082,-0.529 -9.44,-3.62 -13.063,-9.263"
             inkscape:connector-curvature="0" /></g></g></g></g></svg>