<?xml version="1.0" encoding="UTF-8" standalone="no"?>
<svg
   xmlns:dc="http://purl.org/dc/elements/1.1/"
   xmlns:cc="http://creativecommons.org/ns#"
   xmlns:rdf="http://www.w3.org/1999/02/22-rdf-syntax-ns#"
   xmlns:svg="http://www.w3.org/2000/svg"
   xmlns="http://www.w3.org/2000/svg"
   xmlns:sodipodi="http://sodipodi.sourceforge.net/DTD/sodipodi-0.dtd"
   xmlns:inkscape="http://www.inkscape.org/namespaces/inkscape"
   viewBox="0 0 771.59534 771.59332"
   height="771.59332"
   width="771.59534"
   xml:space="preserve"
   id="svg18468"
   version="1.1"
   sodipodi:docname="pierce.svg"
   inkscape:version="0.92.0 r"><sodipodi:namedview
     pagecolor="#ffffff"
     bordercolor="#666666"
     borderopacity="1"
     objecttolerance="10"
     gridtolerance="10"
     guidetolerance="10"
     inkscape:pageopacity="0"
     inkscape:pageshadow="2"
     inkscape:window-width="834"
     inkscape:window-height="480"
     id="namedview17744"
     showgrid="false"
     fit-margin-top="0"
     fit-margin-left="0"
     fit-margin-right="0"
     fit-margin-bottom="0"
     inkscape:zoom="0.295"
     inkscape:cx="385.7974"
     inkscape:cy="385.79667"
     inkscape:window-x="0"
     inkscape:window-y="0"
     inkscape:window-maximized="0"
     inkscape:current-layer="svg18468" /><metadata
     id="metadata18474"><rdf:RDF><cc:Work
         rdf:about=""><dc:format>image/svg+xml</dc:format><dc:type
           rdf:resource="http://purl.org/dc/dcmitype/StillImage" /><dc:title></dc:title></cc:Work></rdf:RDF></metadata><defs
     id="defs18472"><clipPath
       id="clipPath18484"
       clipPathUnits="userSpaceOnUse"><path
         id="path18482"
         d="M 0,600 H 600 V 0 H 0 Z"
         inkscape:connector-curvature="0" /></clipPath></defs><g
     transform="matrix(1.3333333,0,0,-1.3333333,-14.2026,785.79665)"
     id="g18476"><g
       id="g18478"><g
         clip-path="url(#clipPath18484)"
         id="g18480"><g
           transform="translate(300.0002,15.6523)"
           id="g18486"><path
             id="path18488"
             style="fill:#c6833f;fill-opacity:1;fill-rule:nonzero;stroke:none"
             d="m 0,0 c -3.922,0 -7.608,1.527 -10.382,4.3 l -269.666,269.666 c -5.723,5.724 -5.723,15.039 0,20.763 l 269.666,269.667 c 2.774,2.772 6.46,4.299 10.382,4.299 3.922,0 7.608,-1.527 10.382,-4.299 L 280.048,294.729 c 5.723,-5.724 5.723,-15.039 0,-20.763 L 10.382,4.3 C 7.608,1.527 3.922,0 0,0"
             inkscape:connector-curvature="0" /></g><g
           transform="translate(300.0002,589.3475)"
           id="g18490"><path
             id="path18492"
             style="fill:#ffffff;fill-opacity:1;fill-rule:nonzero;stroke:none"
             d="m 0,0 c -5.037,0 -10.074,-1.921 -13.917,-5.765 l -269.666,-269.666 c -7.687,-7.686 -7.687,-20.147 0,-27.834 l 269.666,-269.666 c 3.843,-3.842 8.88,-5.764 13.917,-5.764 5.037,0 10.073,1.922 13.917,5.764 l 269.666,269.666 c 7.687,7.687 7.687,20.148 0,27.834 L 13.917,-5.765 C 10.073,-1.921 5.037,0 0,0 m 0,-10 c 2.586,0 5.017,-1.007 6.846,-2.835 l 269.667,-269.667 c 1.828,-1.828 2.835,-4.26 2.835,-6.846 0,-2.586 -1.007,-5.016 -2.836,-6.845 L 6.846,-565.859 c -1.829,-1.829 -4.26,-2.836 -6.846,-2.836 -2.586,0 -5.018,1.007 -6.846,2.836 l -269.667,269.666 c -3.774,3.774 -3.774,9.917 0,13.691 L -6.846,-12.835 C -5.018,-11.007 -2.586,-10 0,-10"
             inkscape:connector-curvature="0" /></g><g
           transform="translate(446.5754,329.9999)"
           id="g18494"><path
             id="path18496"
             style="fill:#ffffff;fill-opacity:1;fill-rule:nonzero;stroke:none"
             d="m 0,0 -18.052,-18.182 h -347.302 l -7.221,-11.818 7.221,-11.818 H -18.052 L 0,-60 79.425,-30 Z"
             inkscape:connector-curvature="0" /></g><g
           transform="translate(356.9611,331.5243)"
           id="g18498"><path
             id="path18500"
             style="fill:#ffffff;fill-opacity:1;fill-rule:nonzero;stroke:none"
             d="M 0,0 30.093,23.392 H 3.461 L 30.093,69.554 -12.518,36.707 V 154.775 L -48.915,59.788 -71.996,105.063 V 56.682 l -25.633,9.321 23.939,-40.728 c 0.875,-1.488 2.817,-1.963 4.262,-1.022 5.714,3.725 20.408,11.101 38.452,3.368 C -17.294,21.758 -8.077,7.328 -4.522,0.917 -3.618,-0.715 -1.473,-1.145 0,0"
             inkscape:connector-curvature="0" /></g><g
           transform="translate(356.9611,266.2763)"
           id="g18502"><path
             id="path18504"
             style="fill:#ffffff;fill-opacity:1;fill-rule:nonzero;stroke:none"
             d="M 0,0 30.093,-23.392 H 3.461 l 26.632,-46.162 -42.611,32.846 v -118.068 l -36.397,94.987 -23.081,-45.274 v 48.381 l -25.633,-9.321 23.939,40.728 c 0.875,1.487 2.817,1.963 4.262,1.021 5.714,-3.724 20.408,-11.1 38.452,-3.367 13.682,5.863 22.899,20.293 26.454,26.704 C -3.618,0.715 -1.473,1.145 0,0"
             inkscape:connector-curvature="0" /></g></g></g></g></svg>