<?xml version="1.0" encoding="UTF-8" standalone="no"?>
<svg
   xmlns:dc="http://purl.org/dc/elements/1.1/"
   xmlns:cc="http://creativecommons.org/ns#"
   xmlns:rdf="http://www.w3.org/1999/02/22-rdf-syntax-ns#"
   xmlns:svg="http://www.w3.org/2000/svg"
   xmlns="http://www.w3.org/2000/svg"
   xmlns:sodipodi="http://sodipodi.sourceforge.net/DTD/sodipodi-0.dtd"
   xmlns:inkscape="http://www.inkscape.org/namespaces/inkscape"
   viewBox="0 0 771.59534 771.59332"
   height="771.59332"
   width="771.59534"
   xml:space="preserve"
   id="svg16013"
   version="1.1"
   sodipodi:docname="poison.svg"
   inkscape:version="0.92.0 r"><sodipodi:namedview
     pagecolor="#ffffff"
     bordercolor="#666666"
     borderopacity="1"
     objecttolerance="10"
     gridtolerance="10"
     guidetolerance="10"
     inkscape:pageopacity="0"
     inkscape:pageshadow="2"
     inkscape:window-width="834"
     inkscape:window-height="480"
     id="namedview18375"
     showgrid="false"
     fit-margin-top="0"
     fit-margin-left="0"
     fit-margin-right="0"
     fit-margin-bottom="0"
     inkscape:zoom="0.295"
     inkscape:cx="385.79767"
     inkscape:cy="385.79667"
     inkscape:window-x="0"
     inkscape:window-y="0"
     inkscape:window-maximized="0"
     inkscape:current-layer="svg16013" /><metadata
     id="metadata16019"><rdf:RDF><cc:Work
         rdf:about=""><dc:format>image/svg+xml</dc:format><dc:type
           rdf:resource="http://purl.org/dc/dcmitype/StillImage" /><dc:title></dc:title></cc:Work></rdf:RDF></metadata><defs
     id="defs16017"><clipPath
       id="clipPath16029"
       clipPathUnits="userSpaceOnUse"><path
         id="path16027"
         d="M 0,600 H 600 V 0 H 0 Z"
         inkscape:connector-curvature="0" /></clipPath></defs><g
     transform="matrix(1.3333333,0,0,-1.3333333,-14.202333,785.79665)"
     id="g16021"><g
       id="g16023"><g
         clip-path="url(#clipPath16029)"
         id="g16025"><g
           transform="translate(300,15.6523)"
           id="g16031"><path
             id="path16033"
             style="fill:#747c5e;fill-opacity:1;fill-rule:nonzero;stroke:none"
             d="m 0,0 c -3.922,0 -7.608,1.527 -10.382,4.3 l -269.666,269.666 c -5.723,5.724 -5.723,15.039 0,20.763 l 269.666,269.667 c 2.774,2.772 6.46,4.299 10.382,4.299 3.922,0 7.608,-1.527 10.382,-4.299 L 280.048,294.729 c 5.724,-5.724 5.724,-15.039 0,-20.763 L 10.382,4.3 C 7.608,1.527 3.922,0 0,0"
             inkscape:connector-curvature="0" /></g><g
           transform="translate(300,589.3475)"
           id="g16035"><path
             id="path16037"
             style="fill:#ffffff;fill-opacity:1;fill-rule:nonzero;stroke:none"
             d="m 0,0 c -5.037,0 -10.073,-1.921 -13.917,-5.765 l -269.666,-269.666 c -7.687,-7.686 -7.687,-20.147 0,-27.834 l 269.666,-269.666 c 3.844,-3.842 8.88,-5.764 13.917,-5.764 5.037,0 10.073,1.922 13.917,5.764 l 269.666,269.666 c 7.687,7.687 7.687,20.148 0,27.834 L 13.917,-5.765 C 10.073,-1.921 5.037,0 0,0 m 0,-10 c 2.586,0 5.017,-1.007 6.846,-2.835 l 269.667,-269.667 c 3.774,-3.774 3.774,-9.917 0,-13.691 L 6.846,-565.859 c -1.828,-1.829 -4.26,-2.836 -6.846,-2.836 -2.586,0 -5.017,1.007 -6.846,2.836 l -269.667,269.666 c -3.774,3.774 -3.774,9.917 0,13.691 L -6.846,-12.835 C -5.017,-11.007 -2.586,-10 0,-10"
             inkscape:connector-curvature="0" /></g><g
           transform="translate(475.3554,323.37)"
           id="g16039"><path
             id="path16041"
             style="fill:#ffffff;fill-opacity:1;fill-rule:nonzero;stroke:none"
             d="m 0,0 c -7.499,32.863 -24.952,95.097 -169.214,95.097 -144.261,0 -161.714,-62.234 -169.213,-95.097 -13.352,-58.51 12.708,-86.403 27.65,-96.87 18.397,-12.889 62.193,-15.086 62.193,-15.086 0,0 -5.897,-29.203 0,-35.998 12.975,-14.949 141.475,-15.949 158.741,0 6.61,6.105 0,35.998 0,35.998 0,0 43.796,2.197 62.194,15.086 C -12.709,-86.403 13.353,-58.51 0,0"
             inkscape:connector-curvature="0" /></g><g
           transform="translate(298.9716,272.9452)"
           id="g16043"><path
             id="path16045"
             style="fill:#747c5e;fill-opacity:1;fill-rule:nonzero;stroke:none"
             d="m 0,0 c -8.886,-1.687 -22.468,-37.379 -19.615,-44.226 2.852,-6.846 9.088,2.836 22.252,0 11.613,-2.503 11.58,-5.68 17.613,-5.753 4.268,-0.05 0.096,18.301 -3.416,36 C 14.167,-0.541 8.887,1.687 0,0"
             inkscape:connector-curvature="0" /></g><g
           transform="translate(232.1562,304.9999)"
           id="g16047"><path
             id="path16049"
             style="fill:#747c5e;fill-opacity:1;fill-rule:nonzero;stroke:none"
             d="m 0,0 29.903,26.16 c 3.029,2.958 3.029,7.756 0,10.714 -3.026,2.96 -7.939,2.96 -10.966,0 L -7.07,7.07 -33.639,36.863 c -2.769,2.952 -7.266,2.952 -10.036,0 -2.772,-2.95 -2.772,-7.736 0,-10.686 L -14.141,0 -44.147,-26.162 c -3.102,-2.957 -3.102,-7.752 0,-10.709 1.548,-1.48 3.582,-2.219 5.614,-2.219 2.031,0 4.064,0.739 5.613,2.219 L -7.07,-7.07 19.409,-36.74 c 1.405,-1.434 3.249,-2.151 5.092,-2.151 1.843,0 3.687,0.717 5.093,2.151 2.812,2.865 2.812,7.512 0,10.379 z"
             inkscape:connector-curvature="0" /></g><g
           transform="translate(232.1562,304.9999)"
           id="g16051"><path
             id="path16053"
             style="fill:none;stroke:#747c60;stroke-width:5;stroke-linecap:butt;stroke-linejoin:miter;stroke-miterlimit:10;stroke-dasharray:none;stroke-opacity:1"
             d="m 0,0 29.903,26.16 c 3.029,2.958 3.029,7.756 0,10.714 -3.026,2.96 -7.939,2.96 -10.966,0 L -7.07,7.07 -33.639,36.863 c -2.769,2.952 -7.266,2.952 -10.036,0 -2.772,-2.95 -2.772,-7.736 0,-10.686 L -14.141,0 -44.147,-26.162 c -3.102,-2.957 -3.102,-7.752 0,-10.709 1.548,-1.48 3.582,-2.219 5.614,-2.219 2.031,0 4.064,0.739 5.613,2.219 L -7.07,-7.07 19.409,-36.74 c 1.405,-1.434 3.249,-2.151 5.092,-2.151 1.843,0 3.687,0.717 5.093,2.151 2.812,2.865 2.812,7.512 0,10.379 z"
             inkscape:connector-curvature="0" /></g><g
           transform="translate(382.1425,304.9999)"
           id="g16055"><path
             id="path16057"
             style="fill:#747c5e;fill-opacity:1;fill-rule:nonzero;stroke:none"
             d="m 0,0 29.903,26.16 c 3.03,2.958 3.03,7.756 0,10.714 -3.026,2.96 -7.939,2.96 -10.965,0 L -7.07,7.07 -33.639,36.863 c -2.769,2.952 -7.266,2.952 -10.036,0 -2.772,-2.95 -2.772,-7.736 0,-10.686 L -14.141,0 -44.147,-26.162 c -3.102,-2.957 -3.102,-7.752 0,-10.709 1.549,-1.48 3.583,-2.219 5.614,-2.219 2.031,0 4.064,0.739 5.614,2.219 L -7.07,-7.07 19.409,-36.74 c 1.405,-1.434 3.25,-2.151 5.093,-2.151 1.842,0 3.686,0.717 5.092,2.151 2.813,2.865 2.813,7.512 0,10.379 z"
             inkscape:connector-curvature="0" /></g><g
           transform="translate(382.1425,304.9999)"
           id="g16059"><path
             id="path16061"
             style="fill:none;stroke:#747c60;stroke-width:5;stroke-linecap:butt;stroke-linejoin:miter;stroke-miterlimit:10;stroke-dasharray:none;stroke-opacity:1"
             d="m 0,0 29.903,26.16 c 3.03,2.958 3.03,7.756 0,10.714 -3.026,2.96 -7.939,2.96 -10.965,0 L -7.07,7.07 -33.639,36.863 c -2.769,2.952 -7.266,2.952 -10.036,0 -2.772,-2.95 -2.772,-7.736 0,-10.686 L -14.141,0 -44.147,-26.162 c -3.102,-2.957 -3.102,-7.752 0,-10.709 1.549,-1.48 3.583,-2.219 5.614,-2.219 2.031,0 4.064,0.739 5.614,2.219 L -7.07,-7.07 19.409,-36.74 c 1.405,-1.434 3.25,-2.151 5.093,-2.151 1.842,0 3.686,0.717 5.092,2.151 2.813,2.865 2.813,7.512 0,10.379 z"
             inkscape:connector-curvature="0" /></g></g></g></g></svg>