<?xml version="1.0" encoding="UTF-8" standalone="no"?>
<svg
   xmlns:dc="http://purl.org/dc/elements/1.1/"
   xmlns:cc="http://creativecommons.org/ns#"
   xmlns:rdf="http://www.w3.org/1999/02/22-rdf-syntax-ns#"
   xmlns:svg="http://www.w3.org/2000/svg"
   xmlns="http://www.w3.org/2000/svg"
   xmlns:sodipodi="http://sodipodi.sourceforge.net/DTD/sodipodi-0.dtd"
   xmlns:inkscape="http://www.inkscape.org/namespaces/inkscape"
   viewBox="0 0 254.06532 303.27045"
   height="303.27045"
   width="254.06532"
   xml:space="preserve"
   id="svg7058"
   version="1.1"
   sodipodi:docname="range.svg"
   inkscape:version="0.92.0 r"><sodipodi:namedview
     pagecolor="#ffffff"
     bordercolor="#666666"
     borderopacity="1"
     objecttolerance="10"
     gridtolerance="10"
     guidetolerance="10"
     inkscape:pageopacity="0"
     inkscape:pageshadow="2"
     inkscape:window-width="834"
     inkscape:window-height="480"
     id="namedview19605"
     showgrid="false"
     fit-margin-top="0"
     fit-margin-left="0"
     fit-margin-right="0"
     fit-margin-bottom="0"
     inkscape:zoom="0.59"
     inkscape:cx="129.59894"
     inkscape:cy="156.51964"
     inkscape:window-x="0"
     inkscape:window-y="0"
     inkscape:window-maximized="0"
     inkscape:current-layer="svg7058" /><metadata
     id="metadata7064"><rdf:RDF><cc:Work
         rdf:about=""><dc:format>image/svg+xml</dc:format><dc:type
           rdf:resource="http://purl.org/dc/dcmitype/StillImage" /><dc:title></dc:title></cc:Work></rdf:RDF></metadata><defs
     id="defs7062"><clipPath
       id="clipPath7074"
       clipPathUnits="userSpaceOnUse"><path
         id="path7072"
         d="M 0,300 H 300 V 0 H 0 Z"
         inkscape:connector-curvature="0" /></clipPath></defs><g
     transform="matrix(1.3333333,0,0,-1.3333333,-70.401065,346.75082)"
     id="g7066"><g
       style="fill:#ffffff"
       id="g7068"><g
         style="fill:#ffffff"
         clip-path="url(#clipPath7074)"
         id="g7070"><g
           style="fill:#ffffff"
           transform="translate(83.5189,108.5928)"
           id="g7076"><path
             id="path7078"
             style="fill:#ffffff;fill-opacity:1;fill-rule:nonzero;stroke:none"
             d="m 0,0 -16.316,129.236 c 0.024,-0.02 0.046,-0.036 0.071,-0.055 10.503,-8.434 26.666,-6.715 42.221,-15.298 13.848,-7.645 27.632,-19.576 54.168,-56.893 26.536,-37.317 33.279,-54.255 35.954,-69.845 3,-17.511 -3.931,-32.214 0.587,-44.904 0.01,-0.029 0.018,-0.055 0.028,-0.085 z m 127.398,-49.345 c -0.273,13.057 6.858,25.019 3.338,46.368 -3.52,21.35 -22.37,48.231 -37.39,69.354 -15.021,21.123 -34.222,47.754 -53.233,58.089 -19.009,10.335 -32.65,7.527 -44.893,12.072 -12.243,4.546 -18.267,17.489 -22.491,14.485 -2.374,-1.687 -1.914,-5.717 0.812,-10.415 L -8.282,-3.381 -5.914,-6.712 124.124,-71.158 c 3.543,-4.117 7.199,-5.875 9.571,-4.188 4.225,3.004 -6.023,12.945 -6.297,26.001"
             inkscape:connector-curvature="0" /></g><g
           style="fill:#ffffff"
           transform="translate(111.7698,118.2012)"
           id="g7080"><path
             id="path7082"
             style="fill:#ffffff;fill-opacity:1;fill-rule:nonzero;stroke:none"
             d="m 0,0 3.535,-15.243 -35.718,-24.883 -5.648,24.342 -21.138,13.327 35.718,24.884 13.238,-8.344 96.054,68.182 -13.921,8.552 59.46,13.228 -32.018,-51.819 -3.507,15.957 z"
             inkscape:connector-curvature="0" /></g></g></g></g></svg>