<?xml version="1.0" encoding="UTF-8" standalone="no"?>
<svg
   xmlns:dc="http://purl.org/dc/elements/1.1/"
   xmlns:cc="http://creativecommons.org/ns#"
   xmlns:rdf="http://www.w3.org/1999/02/22-rdf-syntax-ns#"
   xmlns:svg="http://www.w3.org/2000/svg"
   xmlns="http://www.w3.org/2000/svg"
   xmlns:sodipodi="http://sodipodi.sourceforge.net/DTD/sodipodi-0.dtd"
   xmlns:inkscape="http://www.inkscape.org/namespaces/inkscape"
   viewBox="0 0 287.60812 336.67001"
   height="336.67001"
   width="287.60812"
   xml:space="preserve"
   id="svg8818"
   version="1.1"
   sodipodi:docname="retaliate.svg"
   inkscape:version="0.92.0 r"><sodipodi:namedview
     pagecolor="#ffffff"
     bordercolor="#666666"
     borderopacity="1"
     objecttolerance="10"
     gridtolerance="10"
     guidetolerance="10"
     inkscape:pageopacity="0"
     inkscape:pageshadow="2"
     inkscape:window-width="834"
     inkscape:window-height="480"
     id="namedview20228"
     showgrid="false"
     fit-margin-top="0"
     fit-margin-left="0"
     fit-margin-right="0"
     fit-margin-bottom="0"
     inkscape:zoom="0.59"
     inkscape:cx="143.8036"
     inkscape:cy="168.3344"
     inkscape:window-x="0"
     inkscape:window-y="0"
     inkscape:window-maximized="0"
     inkscape:current-layer="svg8818" /><metadata
     id="metadata8824"><rdf:RDF><cc:Work
         rdf:about=""><dc:format>image/svg+xml</dc:format><dc:type
           rdf:resource="http://purl.org/dc/dcmitype/StillImage" /><dc:title></dc:title></cc:Work></rdf:RDF></metadata><defs
     id="defs8822"><clipPath
       id="clipPath8834"
       clipPathUnits="userSpaceOnUse"><path
         id="path8832"
         d="M 0,300 H 300 V 0 H 0 Z"
         inkscape:connector-curvature="0" /></clipPath></defs><g
     transform="matrix(1.3333333,0,0,-1.3333333,-56.196405,368.33561)"
     id="g8826"><g
       style="fill:#ffffff"
       id="g8828"><g
         style="fill:#ffffff"
         clip-path="url(#clipPath8834)"
         id="g8830"><g
           style="fill:#ffffff"
           transform="translate(75.9717,104.1563)"
           id="g8836"><path
             id="path8838"
             style="fill:#ffffff;fill-opacity:1;fill-rule:nonzero;stroke:none"
             d="m 0,0 c 0,0 -33.958,50.147 -33.824,52.814 0.296,5.935 48.066,56.671 56.968,61.122 8.9,4.451 30.263,4.451 44.505,8.011 14.243,3.56 24.923,8.011 29.374,1.781 4.451,-6.231 -3.56,-36.496 -14.242,-41.836 C 64.609,72.805 49.847,73.88 49.847,73.88 l -4.451,-5.34 c 0,0 27.312,-27.88 22.253,-48.957 C 62.309,-2.67 48.066,-25.813 14.242,-34.715 3.052,-37.659 0,0 0,0"
             inkscape:connector-curvature="0" /></g><g
           style="fill:#ffffff"
           transform="translate(152.1328,170.4082)"
           id="g8840"><path
             id="path8842"
             style="fill:#ffffff;fill-opacity:1;fill-rule:nonzero;stroke:none"
             d="m 0,0 c -1.841,0.436 -3.409,-1.4 -2.671,-3.142 4.943,-11.673 15.918,-45.63 -5.841,-79.131 -18.692,-28.782 -48.957,-29.374 -48.957,-29.374 l 7.418,-35.012 h 61.418 l 5.403,31.185 c 0.396,2.288 3.518,2.704 4.472,0.587 2.574,-5.715 5.82,-15.876 6.607,-31.772 h 41.519 c 0,0 -7.245,42.13 -4.593,59.934 2.077,13.946 28.484,42.43 28.484,42.43 l -10.088,24.627 z"
             inkscape:connector-curvature="0" /></g><g
           style="fill:#ffffff"
           transform="translate(65.9072,205.7207)"
           id="g8844"><path
             id="path8846"
             style="fill:#ffffff;fill-opacity:1;fill-rule:nonzero;stroke:none"
             d="m 0,0 -5.958,40.855 c 0,0 24.191,23.466 34.715,26.704 7.715,2.374 16.912,-4.451 16.912,-4.451 l 1.78,-35.011 c 0,0 -15.132,-1.78 -20.176,-4.451 C 19.462,19.511 0,0 0,0"
             inkscape:connector-curvature="0" /></g><g
           style="fill:#ffffff"
           transform="translate(129.3789,236.1914)"
           id="g8848"><path
             id="path8850"
             style="fill:#ffffff;fill-opacity:1;fill-rule:nonzero;stroke:none"
             d="m 0,0 0.594,30.264 c 0,0 20.176,9.501 28.186,9.792 8.012,0.291 19.88,-14.243 19.88,-14.243 0,0 -2.405,-17.802 -6.527,-18.692 C 38.011,6.231 0,0 0,0"
             inkscape:connector-curvature="0" /></g><g
           style="fill:#ffffff"
           transform="translate(192.5781,252.5103)"
           id="g8852"><path
             id="path8854"
             style="fill:#ffffff;fill-opacity:1;fill-rule:nonzero;stroke:none"
             d="m 0,0 c 0,0 -16.918,-50.498 -18.693,-70.913 -0.593,-6.824 28.484,-12.462 30.264,-8.011 1.781,4.45 19.879,63.198 18.99,70.32 C 29.67,-1.483 8.604,4.154 0,0"
             inkscape:connector-curvature="0" /></g><g
           style="fill:#ffffff"
           transform="translate(231.1494,222.8394)"
           id="g8856"><path
             id="path8858"
             style="fill:#ffffff;fill-opacity:1;fill-rule:nonzero;stroke:none"
             d="m 0,0 c 0,0 -18.989,-52.517 -16.318,-55.484 5.362,-5.959 24.626,-9.198 29.966,0.593 5.341,9.792 13.056,32.045 13.056,37.386 0,5.34 -4.154,15.131 -7.715,16.912 C 15.009,1.397 5.341,2.374 0,0"
             inkscape:connector-curvature="0" /></g></g></g></g></svg>