<?xml version="1.0" encoding="UTF-8" standalone="no"?>
<svg
   xmlns:dc="http://purl.org/dc/elements/1.1/"
   xmlns:cc="http://creativecommons.org/ns#"
   xmlns:rdf="http://www.w3.org/1999/02/22-rdf-syntax-ns#"
   xmlns:svg="http://www.w3.org/2000/svg"
   xmlns="http://www.w3.org/2000/svg"
   xmlns:sodipodi="http://sodipodi.sourceforge.net/DTD/sodipodi-0.dtd"
   xmlns:inkscape="http://www.inkscape.org/namespaces/inkscape"
   viewBox="0 0 771.59534 771.59332"
   height="771.59332"
   width="771.59534"
   xml:space="preserve"
   id="svg19068"
   version="1.1"
   sodipodi:docname="add_target.svg"
   inkscape:version="0.92.0 r"><sodipodi:namedview
     pagecolor="#ffffff"
     bordercolor="#666666"
     borderopacity="1"
     objecttolerance="10"
     gridtolerance="10"
     guidetolerance="10"
     inkscape:pageopacity="0"
     inkscape:pageshadow="2"
     inkscape:window-width="1918"
     inkscape:window-height="1061"
     id="namedview4557"
     showgrid="false"
     fit-margin-top="0"
     fit-margin-left="0"
     fit-margin-right="0"
     fit-margin-bottom="0"
     inkscape:zoom="0.60125"
     inkscape:cx="389.12407"
     inkscape:cy="385.79667"
     inkscape:window-x="0"
     inkscape:window-y="17"
     inkscape:window-maximized="0"
     inkscape:current-layer="svg19068" /><metadata
     id="metadata19074"><rdf:RDF><cc:Work
         rdf:about=""><dc:format>image/svg+xml</dc:format><dc:type
           rdf:resource="http://purl.org/dc/dcmitype/StillImage" /><dc:title></dc:title></cc:Work></rdf:RDF></metadata><defs
     id="defs19072"><clipPath
       id="clipPath19084"
       clipPathUnits="userSpaceOnUse"><path
         id="path19082"
         d="M 0,600 H 600 V 0 H 0 Z"
         inkscape:connector-curvature="0" /></clipPath></defs><g
     transform="matrix(1.3333333,0,0,-1.3333333,-14.202333,785.79665)"
     id="g19076"><g
       id="g19078"><g
         clip-path="url(#clipPath19084)"
         id="g19080"><g
           transform="translate(300,15.6523)"
           id="g19086"><path
             id="path19088"
             style="fill:#a91c22;fill-opacity:1;fill-rule:nonzero;stroke:none"
             d="m 0,0 c -3.922,0 -7.608,1.527 -10.382,4.3 l -269.666,269.666 c -5.723,5.724 -5.723,15.039 0,20.763 l 269.666,269.667 c 2.774,2.772 6.46,4.299 10.382,4.299 3.922,0 7.608,-1.527 10.382,-4.299 L 280.048,294.729 c 5.724,-5.724 5.724,-15.039 0,-20.763 L 10.382,4.3 C 7.608,1.527 3.922,0 0,0"
             inkscape:connector-curvature="0" /></g><g
           transform="translate(300,589.3475)"
           id="g19090"><path
             id="path19092"
             style="fill:#ffffff;fill-opacity:1;fill-rule:nonzero;stroke:none"
             d="m 0,0 c -5.037,0 -10.073,-1.921 -13.917,-5.765 l -269.666,-269.666 c -7.687,-7.686 -7.687,-20.147 0,-27.834 l 269.666,-269.666 c 3.844,-3.842 8.88,-5.764 13.917,-5.764 5.037,0 10.073,1.922 13.917,5.764 l 269.666,269.666 c 7.687,7.687 7.687,20.148 0,27.834 L 13.917,-5.765 C 10.073,-1.921 5.037,0 0,0 m 0,-10 c 2.586,0 5.017,-1.007 6.846,-2.835 l 269.667,-269.667 c 3.774,-3.774 3.774,-9.917 0,-13.691 L 6.846,-565.859 c -1.829,-1.829 -4.26,-2.836 -6.846,-2.836 -2.586,0 -5.017,1.007 -6.846,2.836 l -269.667,269.666 c -1.828,1.829 -2.835,4.259 -2.835,6.845 0,2.586 1.007,5.018 2.835,6.846 L -6.846,-12.835 C -5.017,-11.007 -2.586,-10 0,-10"
             inkscape:connector-curvature="0" /></g><g
           transform="translate(300,181.7001)"
           id="g19094"><path
             id="path19096"
             style="fill:#ffffff;fill-opacity:1;fill-rule:nonzero;stroke:none"
             d="m 0,0 c -65.335,0 -118.3,52.965 -118.3,118.3 0,65.336 52.965,118.3 118.3,118.3 65.335,0 118.3,-52.964 118.3,-118.3 C 118.3,52.965 65.335,0 0,0 m 0,275.489 c -86.813,0 -157.189,-70.376 -157.189,-157.189 0,-86.814 70.376,-157.19 157.189,-157.19 86.813,0 157.189,70.376 157.189,157.19 0,86.813 -70.376,157.189 -157.189,157.189"
             inkscape:connector-curvature="0" /></g><g
           transform="translate(300,252.7538)"
           id="g19098"><path
             id="path19100"
             style="fill:#ffffff;fill-opacity:1;fill-rule:nonzero;stroke:none"
             d="m 0,0 c -26.094,0 -47.246,21.152 -47.246,47.246 0,26.094 21.152,47.246 47.246,47.246 26.093,0 47.246,-21.152 47.246,-47.246 C 47.246,21.152 26.093,0 0,0 m 0,131.913 c -46.76,0 -84.667,-37.907 -84.667,-84.667 0,-46.76 37.907,-84.666 84.667,-84.666 46.76,0 84.667,37.906 84.667,84.666 0,46.76 -37.907,84.667 -84.667,84.667"
             inkscape:connector-curvature="0" /></g></g></g></g></svg>