<?xml version="1.0" encoding="UTF-8" standalone="no"?>
<svg
   xmlns:dc="http://purl.org/dc/elements/1.1/"
   xmlns:cc="http://creativecommons.org/ns#"
   xmlns:rdf="http://www.w3.org/1999/02/22-rdf-syntax-ns#"
   xmlns:svg="http://www.w3.org/2000/svg"
   xmlns="http://www.w3.org/2000/svg"
   xmlns:sodipodi="http://sodipodi.sourceforge.net/DTD/sodipodi-0.dtd"
   xmlns:inkscape="http://www.inkscape.org/namespaces/inkscape"
   viewBox="0 0 746.66663 746.66663"
   height="746.66663"
   width="746.66663"
   xml:space="preserve"
   id="svg23876"
   version="1.1"
   sodipodi:docname="any_element.svg"
   inkscape:version="0.92.0 r"><sodipodi:namedview
     pagecolor="#ffffff"
     bordercolor="#666666"
     borderopacity="1"
     objecttolerance="10"
     gridtolerance="10"
     guidetolerance="10"
     inkscape:pageopacity="0"
     inkscape:pageshadow="2"
     inkscape:window-width="1918"
     inkscape:window-height="1061"
     id="namedview5264"
     showgrid="false"
     fit-margin-top="0"
     fit-margin-left="0"
     fit-margin-right="0"
     fit-margin-bottom="0"
     inkscape:zoom="0.295"
     inkscape:cx="373.33333"
     inkscape:cy="373.33333"
     inkscape:window-x="0"
     inkscape:window-y="17"
     inkscape:window-maximized="0"
     inkscape:current-layer="svg23876" /><metadata
     id="metadata23882"><rdf:RDF><cc:Work
         rdf:about=""><dc:format>image/svg+xml</dc:format><dc:type
           rdf:resource="http://purl.org/dc/dcmitype/StillImage" /><dc:title></dc:title></cc:Work></rdf:RDF></metadata><defs
     id="defs23880"><clipPath
       id="clipPath23892"
       clipPathUnits="userSpaceOnUse"><path
         id="path23890"
         d="M 0,600 H 600 V 0 H 0 Z"
         inkscape:connector-curvature="0" /></clipPath></defs><g
     transform="matrix(1.3333333,0,0,-1.3333333,-26.666666,773.33331)"
     id="g23884"><g
       id="g23886"><g
         clip-path="url(#clipPath23892)"
         id="g23888"><g
           transform="translate(300,28)"
           id="g23894"><path
             id="path23896"
             style="fill:#ffffff;fill-opacity:1;fill-rule:nonzero;stroke:none"
             d="M 0,0 C -72.653,0 -140.959,28.293 -192.333,79.667 -243.707,131.041 -272,199.347 -272,272 c 0,72.654 28.293,140.959 79.667,192.333 C -140.959,515.707 -72.653,544 0,544 72.653,544 140.959,515.707 192.333,464.333 243.707,412.959 272,344.654 272,272 272,199.347 243.707,131.041 192.333,79.667 140.959,28.293 72.653,0 0,0"
             inkscape:connector-curvature="0" /></g><g
           transform="translate(300,580)"
           id="g23898"><path
             id="path23900"
             style="fill:#ffffff;fill-opacity:1;fill-rule:nonzero;stroke:none"
             d="m 0,0 c -37.793,0 -74.463,-7.405 -108.994,-22.01 -33.344,-14.104 -63.286,-34.291 -88.996,-60 -25.709,-25.71 -45.897,-55.652 -59.999,-88.996 C -272.595,-205.537 -280,-242.207 -280,-280 c 0,-37.793 7.405,-74.464 22.011,-108.993 14.102,-33.345 34.29,-63.287 59.999,-88.997 25.71,-25.709 55.652,-45.897 88.996,-59.999 C -74.463,-552.595 -37.793,-560 0,-560 c 37.793,0 74.463,7.405 108.994,22.011 33.344,14.102 63.286,34.29 88.996,59.999 25.709,25.71 45.897,55.652 60,88.997 14.605,34.529 22.01,71.2 22.01,108.993 0,37.793 -7.405,74.463 -22.01,108.994 -14.103,33.344 -34.291,63.286 -60,88.996 -25.71,25.709 -55.652,45.896 -88.996,60 C 74.463,-7.405 37.793,0 0,0 m 0,-16 c 145.803,0 264,-118.197 264,-264 0,-145.803 -118.197,-264 -264,-264 -145.803,0 -264,118.197 -264,264 0,145.803 118.197,264 264,264"
             inkscape:connector-curvature="0" /></g><g
           transform="translate(300,300)"
           id="g23902"><path
             id="path23904"
             style="fill:#202830;fill-opacity:1;fill-rule:nonzero;stroke:none"
             d="M 0,0 C 0,0 -160.142,-93.372 -228.669,-132.022 -274.171,-53.04 -277.485,47.382 -228.631,132 -174.504,100.75 0,0 0,0"
             inkscape:connector-curvature="0" /></g><g
           transform="translate(300,300)"
           id="g23906"><path
             id="path23908"
             style="fill:#eca610;fill-opacity:1;fill-rule:nonzero;stroke:none"
             d="M 0,0 C 0,0 0.792,-185.372 0.001,-264.044 -91.152,-263.959 -179.776,-216.618 -228.631,-132 -174.504,-100.75 0,0 0,0"
             inkscape:connector-curvature="0" /></g><g
           transform="translate(300,300)"
           id="g23910"><path
             id="path23912"
             style="fill:#7da82a;fill-opacity:1;fill-rule:nonzero;stroke:none"
             d="M 0,0 C 0,0 160.934,-92 228.669,-132.021 183.02,-210.919 97.708,-264 0,-264 Z"
             inkscape:connector-curvature="0" /></g><g
           transform="translate(300,300)"
           id="g23914"><path
             id="path23916"
             style="fill:#e2421f;fill-opacity:1;fill-rule:nonzero;stroke:none"
             d="M 0,0 C 0,0 160.141,93.373 228.668,132.022 274.171,53.04 277.485,-47.382 228.631,-132 174.504,-100.75 0,0 0,0"
             inkscape:connector-curvature="0" /></g><g
           transform="translate(300,300)"
           id="g23918"><path
             id="path23920"
             style="fill:#56c8ef;fill-opacity:1;fill-rule:nonzero;stroke:none"
             d="M 0,0 C 0,0 -0.792,185.373 -0.001,264.044 91.152,263.959 179.776,216.618 228.631,132 174.504,100.75 0,0 0,0"
             inkscape:connector-curvature="0" /></g><g
           transform="translate(300,300)"
           id="g23922"><path
             id="path23924"
             style="fill:#98b0b5;fill-opacity:1;fill-rule:nonzero;stroke:none"
             d="M 0,0 C 0,0 -160.934,92 -228.669,132.021 -183.02,210.919 -97.708,264 0,264 Z"
             inkscape:connector-curvature="0" /></g></g></g></g></svg>