<?xml version="1.0" encoding="utf-8"?>
<svg viewBox="85 -228 662 671" xmlns="http://www.w3.org/2000/svg">
  <g transform="matrix(1.333333, 0, 0, -1.333333, 50.000023, 449.999725)" id="g4542">
    <g transform="translate(270.4375,80.4648)" id="g4544">
      <path id="path4546" style="fill:#f5f5f5;fill-opacity:1;fill-rule:nonzero;stroke:none" d="M 0,0 -120.438,-69.534 -240.875,0 V 139.07 L -120.438,208.604 0,139.07 Z"/>
    </g>
    <g id="g4548">
      <g clip-path="url(#clipPath4554)" id="g4550">
        <g transform="translate(270.4375,80.4648)" id="g4556">
          <path id="path4558" style="fill:none;stroke:#231f20;stroke-width:8;stroke-linecap:butt;stroke-linejoin:round;stroke-miterlimit:10;stroke-dasharray:none;stroke-opacity:1" d="M 0,0 -120.438,-69.534 -240.875,0 V 139.07 L -120.438,208.604 0,139.07 Z"/>
        </g>
      </g>
    </g>
    <g transform="translate(245.6172,94.7949)" id="g4560">
      <path id="path4562" style="fill:#535456;fill-opacity:1;fill-rule:nonzero;stroke:none" d="M 0,0 -95.617,-55.204 -191.234,0 V 110.41 L -95.617,165.615 0,110.41 Z"/>
    </g>
  </g>
  <g transform="matrix(1.333333, 0, 0, -1.333333, 380.876343, 450.03363)" id="g4493">
    <g transform="translate(270.4375,80.4648)" id="g4495">
      <path id="path4497" style="fill:#f5f5f5;fill-opacity:1;fill-rule:nonzero;stroke:none" d="M 0,0 -120.438,-69.534 -240.875,0 V 139.07 L -120.438,208.604 0,139.07 Z"/>
    </g>
    <g id="g4499">
      <g clip-path="url(#clipPath4505)" id="g4501">
        <g transform="translate(270.4375,80.4648)" id="g4507">
          <path id="path4509" style="fill:none;stroke:#231f20;stroke-width:8;stroke-linecap:butt;stroke-linejoin:round;stroke-miterlimit:10;stroke-dasharray:none;stroke-opacity:1" d="M 0,0 -120.438,-69.534 -240.875,0 V 139.07 L -120.438,208.604 0,139.07 Z"/>
        </g>
      </g>
    </g>
    <g transform="translate(245.6172,94.7949)" id="g4511">
      <path id="path4513" style="fill:#c71e25;fill-opacity:1;fill-rule:nonzero;stroke:none" d="M 0,0 -95.617,-55.204 -191.235,0 V 110.41 L -95.617,165.615 0,110.41 Z"/>
    </g>
  </g>
  <g transform="matrix(1.333333, 0, 0, -1.333333, 216.16275, 164.248901)" id="g-1">
    <g transform="translate(270.4375,80.4648)" id="g-2">
      <path id="path-1" style="fill:#f5f5f5;fill-opacity:1;fill-rule:nonzero;stroke:none" d="M 0,0 -120.438,-69.534 -240.875,0 V 139.07 L -120.438,208.604 0,139.07 Z"/>
    </g>
    <g id="g-3">
      <g clip-path="url(#clipPath4505)" id="g-4">
        <g transform="translate(270.4375,80.4648)" id="g-5">
          <path id="path-2" style="fill:none;stroke:#231f20;stroke-width:8;stroke-linecap:butt;stroke-linejoin:round;stroke-miterlimit:10;stroke-dasharray:none;stroke-opacity:1" d="M 0,0 -120.438,-69.534 -240.875,0 V 139.07 L -120.438,208.604 0,139.07 Z"/>
        </g>
      </g>
    </g>
    <g transform="translate(245.6172,94.7949)" id="g-6">
      <path id="path-3" style="fill:#c71e25;fill-opacity:1;fill-rule:nonzero;stroke:none" d="M 0,0 -95.617,-55.204 -191.235,0 V 110.41 L -95.617,165.615 0,110.41 Z"/>
    </g>
  </g>
  <g transform="matrix(1.333333, 0, 0, -1.333333, 50.067924, 449.999695)" id="g-7">
    <g transform="translate(270.4375,80.4648)" id="g-8">
      <path id="path-4" style="fill:#f5f5f5;fill-opacity:1;fill-rule:nonzero;stroke:none" d="M 0,0 -120.438,-69.534 -240.875,0 V 139.07 L -120.438,208.604 0,139.07 Z"/>
    </g>
    <g id="g-9">
      <g clip-path="url(#clipPath4505)" id="g-10">
        <g transform="translate(270.4375,80.4648)" id="g-11">
          <path id="path-5" style="fill:none;stroke:#231f20;stroke-width:8;stroke-linecap:butt;stroke-linejoin:round;stroke-miterlimit:10;stroke-dasharray:none;stroke-opacity:1" d="M 0,0 -120.438,-69.534 -240.875,0 V 139.07 L -120.438,208.604 0,139.07 Z"/>
        </g>
      </g>
    </g>
    <g transform="translate(245.6172,94.7949)" id="g-12">
      <path id="path-6" style="fill:#c71e25;fill-opacity:1;fill-rule:nonzero;stroke:none" d="M 0,0 -95.617,-55.204 -191.235,0 V 110.41 L -95.617,165.615 0,110.41 Z"/>
    </g>
  </g>
</svg>