<?xml version="1.0" encoding="UTF-8" standalone="no"?>
<svg
   xmlns:dc="http://purl.org/dc/elements/1.1/"
   xmlns:cc="http://creativecommons.org/ns#"
   xmlns:rdf="http://www.w3.org/1999/02/22-rdf-syntax-ns#"
   xmlns:svg="http://www.w3.org/2000/svg"
   xmlns="http://www.w3.org/2000/svg"
   viewBox="0 0 311.19537 308.33627"
   height="308.33627"
   width="311.19537"
   xml:space="preserve"
   id="svg4607"
   version="1.1"><metadata
     id="metadata4613"><rdf:RDF><cc:Work
         rdf:about=""><dc:format>image/svg+xml</dc:format><dc:type
           rdf:resource="http://purl.org/dc/dcmitype/StillImage" /><dc:title></dc:title></cc:Work></rdf:RDF></metadata><defs
     id="defs4611"><clipPath
       id="clipPath4627"
       clipPathUnits="userSpaceOnUse"><path
         id="path4625"
         d="M 0,300 H 300 V 0 H 0 Z" /></clipPath></defs><g
     transform="matrix(1.3333333,0,0,-1.3333333,-44.402622,354.16866)"
     id="g4615"><g
       style="fill:#ffffff"
       transform="translate(101.892,54.0625)"
       id="g4617"><path
         id="path4619"
         style="fill:#ffffff;fill-opacity:1;fill-rule:nonzero;stroke:none"
         d="m 0,0 -6.907,-4.933 -50.887,46.962 4.363,7.281 13.994,-12.914 87.349,94.649 29.862,6.833 -4.419,-30.314 -87.348,-94.65 z" /></g><g
       style="fill:#ffffff"
       id="g4621"><g
         style="fill:#ffffff"
         clip-path="url(#clipPath4627)"
         id="g4623"><g
           style="fill:#ffffff"
           transform="translate(72.1644,62.1807)"
           id="g4629"><path
             id="path4631"
             style="fill:#ffffff;fill-opacity:1;fill-rule:nonzero;stroke:none"
             d="m 0,0 -25.629,-27.772 c 0,0 -4.416,-0.636 -8.964,3.561 -4.548,4.196 -4.266,8.648 -4.266,8.648 L -13.23,12.21 Z" /></g><g
           style="fill:#ffffff"
           transform="translate(96.7475,153.3145)"
           id="g4633"><path
             id="path4635"
             style="fill:#ffffff;fill-opacity:1;fill-rule:nonzero;stroke:none"
             d="m 0,0 10.053,6.239 -18.657,23.442 38.414,4.15 1.734,34.457 22.403,-14.066 35.487,17.186 4.746,-39.734 26.798,-6.716 -22.185,-13.186 15.945,-28.411 -30.957,0.945 -2.706,-38.642 -24.357,18.687 -5.471,-10.492 42.111,-63.102 6.44,76.617 62.587,-21.949 -38.566,61.081 46.132,21.026 -56.652,19.033 -3.414,65.747 L 54.943,73.555 9.382,106.114 11.979,51.79 -62.572,48.581 Z" /></g></g></g></g></svg>