<?xml version="1.0" encoding="UTF-8" standalone="no"?>
<svg
   xmlns:dc="http://purl.org/dc/elements/1.1/"
   xmlns:cc="http://creativecommons.org/ns#"
   xmlns:rdf="http://www.w3.org/1999/02/22-rdf-syntax-ns#"
   xmlns:svg="http://www.w3.org/2000/svg"
   xmlns="http://www.w3.org/2000/svg"
   xmlns:sodipodi="http://sodipodi.sourceforge.net/DTD/sodipodi-0.dtd"
   xmlns:inkscape="http://www.inkscape.org/namespaces/inkscape"
   viewBox="0 0 771.59534 771.59332"
   height="771.59332"
   width="771.59534"
   xml:space="preserve"
   id="svg11785"
   version="1.1"
   sodipodi:docname="bless.svg"
   inkscape:version="0.92.0 r"><sodipodi:namedview
     pagecolor="#ffffff"
     bordercolor="#666666"
     borderopacity="1"
     objecttolerance="10"
     gridtolerance="10"
     guidetolerance="10"
     inkscape:pageopacity="0"
     inkscape:pageshadow="2"
     inkscape:window-width="834"
     inkscape:window-height="480"
     id="namedview7829"
     showgrid="false"
     fit-margin-top="0"
     fit-margin-left="0"
     fit-margin-right="0"
     fit-margin-bottom="0"
     inkscape:zoom="0.295"
     inkscape:cx="385.79767"
     inkscape:cy="385.7964"
     inkscape:window-x="0"
     inkscape:window-y="0"
     inkscape:window-maximized="0"
     inkscape:current-layer="svg11785" /><metadata
     id="metadata11791"><rdf:RDF><cc:Work
         rdf:about=""><dc:format>image/svg+xml</dc:format><dc:type
           rdf:resource="http://purl.org/dc/dcmitype/StillImage" /><dc:title></dc:title></cc:Work></rdf:RDF></metadata><defs
     id="defs11789"><clipPath
       id="clipPath11801"
       clipPathUnits="userSpaceOnUse"><path
         id="path11799"
         d="M 0,600 H 600 V 0 H 0 Z"
         inkscape:connector-curvature="0" /></clipPath></defs><g
     transform="matrix(1.3333333,0,0,-1.3333333,-14.202333,785.79691)"
     id="g11793"><g
       id="g11795"><g
         clip-path="url(#clipPath11801)"
         id="g11797"><g
           transform="translate(300,15.6523)"
           id="g11803"><path
             id="path11805"
             style="fill:#d1a016;fill-opacity:1;fill-rule:nonzero;stroke:none"
             d="m 0,0 c -3.921,0 -7.608,1.527 -10.381,4.3 l -269.667,269.666 c -5.724,5.724 -5.724,15.038 0,20.763 l 269.667,269.667 c 2.773,2.772 6.46,4.299 10.381,4.299 3.922,0 7.608,-1.527 10.382,-4.299 L 280.048,294.729 c 2.772,-2.773 4.3,-6.46 4.3,-10.381 0,-3.922 -1.528,-7.609 -4.3,-10.382 L 10.382,4.3 C 7.608,1.527 3.922,0 0,0"
             inkscape:connector-curvature="0" /></g><g
           transform="translate(300,589.3477)"
           id="g11807"><path
             id="path11809"
             style="fill:#ffffff;fill-opacity:1;fill-rule:nonzero;stroke:none"
             d="m 0,0 c -5.037,0 -10.074,-1.921 -13.917,-5.764 l -269.666,-269.667 c -7.687,-7.686 -7.687,-20.147 0,-27.834 l 269.666,-269.666 c 3.843,-3.843 8.88,-5.764 13.917,-5.764 5.037,0 10.073,1.921 13.917,5.764 l 269.666,269.666 c 7.687,7.687 7.687,20.148 0,27.834 L 13.917,-5.764 C 10.073,-1.921 5.037,0 0,0 m 0,-10 c 2.586,0 5.018,-1.007 6.846,-2.835 l 269.666,-269.667 c 3.775,-3.775 3.775,-9.917 0,-13.691 L 6.846,-565.859 c -1.828,-1.829 -4.26,-2.836 -6.846,-2.836 -2.586,0 -5.017,1.007 -6.846,2.836 l -269.666,269.666 c -3.775,3.774 -3.775,9.916 0,13.691 L -6.846,-12.835 C -5.017,-11.007 -2.586,-10 0,-10"
             inkscape:connector-curvature="0" /></g><g
           transform="translate(299.0156,382.6372)"
           id="g11811"><path
             id="path11813"
             style="fill:#ffffff;fill-opacity:1;fill-rule:nonzero;stroke:none"
             d="m 0,0 35.813,-62.031 35.814,-62.031 H 0 -71.627 l 35.814,62.031 z"
             inkscape:connector-curvature="0" /></g><g
           transform="translate(326.0186,441.6064)"
           id="g11815"><path
             id="path11817"
             style="fill:#ffffff;fill-opacity:1;fill-rule:nonzero;stroke:none"
             d="m 0,0 c 0,-14.914 -12.09,-27.003 -27.003,-27.003 -14.913,0 -27.002,12.089 -27.002,27.003 0,14.913 12.089,27.002 27.002,27.002 C -12.09,27.002 0,14.913 0,0"
             inkscape:connector-curvature="0" /></g><g
           transform="translate(402.9258,204.1699)"
           id="g11819"><path
             id="path11821"
             style="fill:#ffffff;fill-opacity:1;fill-rule:nonzero;stroke:none"
             d="m 0,0 c -12.611,7.96 -16.382,24.636 -8.422,37.247 7.96,12.611 24.636,16.382 37.247,8.422 C 41.437,37.71 45.207,21.033 37.247,8.422 29.287,-4.189 12.611,-7.96 0,0"
             inkscape:connector-curvature="0" /></g><g
           transform="translate(167.6636,246.4287)"
           id="g11823"><path
             id="path11825"
             style="fill:#ffffff;fill-opacity:1;fill-rule:nonzero;stroke:none"
             d="m 0,0 c 12.401,8.283 29.169,4.944 37.452,-7.457 8.283,-12.401 4.944,-29.17 -7.457,-37.452 -12.402,-8.283 -29.17,-4.945 -37.453,7.457 C -15.74,-25.051 -12.401,-8.282 0,0"
             inkscape:connector-curvature="0" /></g><g
           transform="translate(439.3105,301.686)"
           id="g11827"><path
             id="path11829"
             style="fill:none;stroke:#ffffff;stroke-width:16;stroke-linecap:butt;stroke-linejoin:miter;stroke-miterlimit:10;stroke-dasharray:none;stroke-opacity:1"
             d="m 0,0 c 0,-77.483 -62.812,-140.295 -140.295,-140.295 -77.483,0 -140.295,62.812 -140.295,140.295 0,77.483 62.812,140.295 140.295,140.295 C -62.812,140.295 0,77.483 0,0 Z"
             inkscape:connector-curvature="0" /></g><g
           transform="translate(375.5986,301.686)"
           id="g11831"><path
             id="path11833"
             style="fill:none;stroke:#ffffff;stroke-width:16;stroke-linecap:butt;stroke-linejoin:miter;stroke-miterlimit:10;stroke-dasharray:none;stroke-opacity:1"
             d="m 0,0 c 0,-42.295 -34.287,-76.583 -76.583,-76.583 -42.296,0 -76.583,34.288 -76.583,76.583 0,42.296 34.287,76.583 76.583,76.583 C -34.287,76.583 0,42.296 0,0 Z"
             inkscape:connector-curvature="0" /></g></g></g></g></svg>