<?xml version="1.0" encoding="UTF-8" standalone="no"?>
<svg
   xmlns:dc="http://purl.org/dc/elements/1.1/"
   xmlns:cc="http://creativecommons.org/ns#"
   xmlns:rdf="http://www.w3.org/1999/02/22-rdf-syntax-ns#"
   xmlns:svg="http://www.w3.org/2000/svg"
   xmlns="http://www.w3.org/2000/svg"
   xmlns:sodipodi="http://sodipodi.sourceforge.net/DTD/sodipodi-0.dtd"
   xmlns:inkscape="http://www.inkscape.org/namespaces/inkscape"
   viewBox="0 0 746.66663 746.66663"
   height="746.66663"
   width="746.66663"
   xml:space="preserve"
   id="svg21504"
   version="1.1"
   sodipodi:docname="earth.svg"
   inkscape:version="0.92.0 r"><sodipodi:namedview
     pagecolor="#ffffff"
     bordercolor="#666666"
     borderopacity="1"
     objecttolerance="10"
     gridtolerance="10"
     guidetolerance="10"
     inkscape:pageopacity="0"
     inkscape:pageshadow="2"
     inkscape:window-width="834"
     inkscape:window-height="480"
     id="namedview10321"
     showgrid="false"
     fit-margin-top="0"
     fit-margin-left="0"
     fit-margin-right="0"
     fit-margin-bottom="0"
     inkscape:zoom="0.295"
     inkscape:cx="373.33333"
     inkscape:cy="373.33333"
     inkscape:window-x="0"
     inkscape:window-y="0"
     inkscape:window-maximized="0"
     inkscape:current-layer="svg21504" /><metadata
     id="metadata21510"><rdf:RDF><cc:Work
         rdf:about=""><dc:format>image/svg+xml</dc:format><dc:type
           rdf:resource="http://purl.org/dc/dcmitype/StillImage" /><dc:title></dc:title></cc:Work></rdf:RDF></metadata><defs
     id="defs21508"><clipPath
       id="clipPath21520"
       clipPathUnits="userSpaceOnUse"><path
         id="path21518"
         d="M 0,600 H 600 V 0 H 0 Z"
         inkscape:connector-curvature="0" /></clipPath></defs><g
     transform="matrix(1.3333333,0,0,-1.3333333,-26.666666,773.33331)"
     id="g21512"><g
       id="g21514"><g
         clip-path="url(#clipPath21520)"
         id="g21516"><g
           transform="translate(300,28)"
           id="g21522"><path
             id="path21524"
             style="fill:#7da82a;fill-opacity:1;fill-rule:nonzero;stroke:none"
             d="M 0,0 C -72.654,0 -140.959,28.293 -192.333,79.667 -243.707,131.041 -272,199.347 -272,272 c 0,72.653 28.293,140.959 79.667,192.333 C -140.959,515.707 -72.654,544 0,544 72.653,544 140.959,515.707 192.333,464.333 243.707,412.959 272,344.653 272,272 272,199.347 243.707,131.041 192.333,79.667 140.959,28.293 72.653,0 0,0"
             inkscape:connector-curvature="0" /></g><g
           transform="translate(300,580)"
           id="g21526"><path
             id="path21528"
             style="fill:#ffffff;fill-opacity:1;fill-rule:nonzero;stroke:none"
             d="m 0,0 c -37.793,0 -74.463,-7.405 -108.994,-22.011 -33.344,-14.102 -63.286,-34.29 -88.996,-59.999 -25.709,-25.71 -45.896,-55.652 -60,-88.997 -14.605,-34.529 -22.01,-71.2 -22.01,-108.993 0,-37.793 7.405,-74.464 22.01,-108.993 14.104,-33.345 34.291,-63.287 60,-88.997 25.71,-25.709 55.652,-45.896 88.996,-59.999 C -74.463,-552.595 -37.793,-560 0,-560 c 37.793,0 74.464,7.405 108.993,22.011 33.345,14.103 63.287,34.29 88.997,59.999 25.709,25.71 45.897,55.652 59.999,88.997 14.606,34.529 22.011,71.2 22.011,108.993 0,37.793 -7.405,74.464 -22.011,108.993 -14.102,33.345 -34.29,63.287 -59.999,88.997 -25.71,25.709 -55.652,45.897 -88.997,59.999 C 74.464,-7.405 37.793,0 0,0 m 0,-16 c 145.803,0 264,-118.196 264,-264 0,-145.803 -118.197,-264 -264,-264 -145.803,0 -264,118.197 -264,264 0,145.804 118.197,264 264,264"
             inkscape:connector-curvature="0" /></g><g
           transform="translate(191.8486,205.1455)"
           id="g21530"><path
             id="path21532"
             style="fill:#ffffff;fill-opacity:1;fill-rule:nonzero;stroke:none"
             d="m 0,0 c -0.423,-4 -4.892,-6.179 -8.264,-3.987 -24.283,15.779 -85.571,80.677 -11.571,162.809 73.487,81.563 169.567,37.861 265.702,95.873 2.907,1.755 6.665,0.165 7.401,-3.15 13.134,-59.172 20.961,-187.976 -39.103,-247.223 -73.5,-72.5 -133.5,-40.5 -166,-29 -1.5,-18 4.501,-41.921 9.501,-58.421 5,-16.5 -27.001,-21.079 -31.001,-18.079 -4,3 -18.611,83.753 18.5,133 47.5,63.032 163,118 166.5,162.5 -22.5,-20 -51.809,-46.518 -129,-89.5 C 14.221,66.711 2.036,19.224 0,0"
             inkscape:connector-curvature="0" /></g></g></g></g></svg>