<?xml version="1.0" encoding="UTF-8" standalone="no"?>
<svg
   xmlns:dc="http://purl.org/dc/elements/1.1/"
   xmlns:cc="http://creativecommons.org/ns#"
   xmlns:rdf="http://www.w3.org/1999/02/22-rdf-syntax-ns#"
   xmlns:svg="http://www.w3.org/2000/svg"
   xmlns="http://www.w3.org/2000/svg"
   viewBox="0 0 400 400"
   height="400"
   width="400"
   xml:space="preserve"
   id="svg10006"
   version="1.1"><metadata
     id="metadata10012"><rdf:RDF><cc:Work
         rdf:about=""><dc:format>image/svg+xml</dc:format><dc:type
           rdf:resource="http://purl.org/dc/dcmitype/StillImage" /><dc:title></dc:title></cc:Work></rdf:RDF></metadata><defs
     id="defs10010"><clipPath
       id="clipPath10022"
       clipPathUnits="userSpaceOnUse"><path
         id="path10020"
         d="M 0,300 H 300 V 0 H 0 Z" /></clipPath></defs><g
     transform="matrix(1.3333333,0,0,-1.3333333,0,400)"
     id="g10014"><g
       style="fill:#ffffff"
       id="g10016"><g
         style="fill:#ffffff"
         clip-path="url(#clipPath10022)"
         id="g10018"><g
           style="fill:#ffffff"
           transform="translate(208.9043,155.4912)"
           id="g10024"><path
             id="path10026"
             style="fill:#ffffff;fill-opacity:1;fill-rule:nonzero;stroke:none"
             d="m 0,0 c 15.666,10.035 60.229,42.364 67.632,89.506 0.236,1.503 -1.558,2.471 -2.679,1.442 -10.631,-9.756 -46.44,-39.191 -96.998,-44.916 -0.769,-0.087 -1.37,-0.701 -1.427,-1.473 -1.477,-20.171 -4.421,-48.084 -17.82,-84.101 l -7.444,4.298 -7.721,-4.457 c -13.449,36.094 -16.4,64.058 -17.88,84.26 -0.057,0.772 -0.657,1.386 -1.427,1.473 -50.557,5.725 -86.367,35.16 -96.998,44.916 -1.121,1.029 -2.915,0.061 -2.678,-1.442 7.402,-47.142 51.965,-79.471 67.631,-89.506 1.428,-0.915 0.661,-3.135 -1.026,-2.958 -7.886,0.823 -22.231,3.521 -38.813,12.258 -1.258,0.662 -2.692,-0.492 -2.312,-1.863 8.188,-29.535 40.438,-45.5 52.447,-50.518 1.432,-0.599 1.268,-2.68 -0.241,-3.045 -6.207,-1.504 -17.415,-3.648 -27.271,-2.503 -1.448,0.169 -2.348,-1.481 -1.44,-2.62 8.387,-10.508 27.934,-15.995 42.29,-17.627 0.068,-0.008 0.377,-0.088 0.881,-0.226 l 5.496,-16.477 29.062,-16.778 29.06,16.778 6.042,16.703 c 14.357,1.632 33.904,7.119 42.29,17.627 0.908,1.139 0.008,2.789 -1.439,2.62 -9.858,-1.145 -21.065,0.999 -27.272,2.503 -1.508,0.365 -1.673,2.446 -0.241,3.045 12.01,5.018 44.26,20.983 52.447,50.518 C 42.531,8.808 41.098,9.962 39.84,9.3 23.258,0.563 8.912,-2.135 1.026,-2.958 -0.66,-3.135 -1.428,-0.915 0,0" /></g></g></g></g></svg>