<?xml version="1.0" encoding="UTF-8" standalone="no"?>
<svg
   xmlns:dc="http://purl.org/dc/elements/1.1/"
   xmlns:cc="http://creativecommons.org/ns#"
   xmlns:rdf="http://www.w3.org/1999/02/22-rdf-syntax-ns#"
   xmlns:svg="http://www.w3.org/2000/svg"
   xmlns="http://www.w3.org/2000/svg"
   xmlns:sodipodi="http://sodipodi.sourceforge.net/DTD/sodipodi-0.dtd"
   xmlns:inkscape="http://www.inkscape.org/namespaces/inkscape"
   viewBox="0 0 746.66663 746.66663"
   height="746.66663"
   width="746.66663"
   xml:space="preserve"
   id="svg20320"
   version="1.1"
   sodipodi:docname="ice.svg"
   inkscape:version="0.92.0 r"><sodipodi:namedview
     pagecolor="#ffffff"
     bordercolor="#666666"
     borderopacity="1"
     objecttolerance="10"
     gridtolerance="10"
     guidetolerance="10"
     inkscape:pageopacity="0"
     inkscape:pageshadow="2"
     inkscape:window-width="834"
     inkscape:window-height="480"
     id="namedview12749"
     showgrid="false"
     fit-margin-top="0"
     fit-margin-left="0"
     fit-margin-right="0"
     fit-margin-bottom="0"
     inkscape:zoom="0.295"
     inkscape:cx="373.33293"
     inkscape:cy="373.33333"
     inkscape:window-x="0"
     inkscape:window-y="0"
     inkscape:window-maximized="0"
     inkscape:current-layer="svg20320" /><metadata
     id="metadata20326"><rdf:RDF><cc:Work
         rdf:about=""><dc:format>image/svg+xml</dc:format><dc:type
           rdf:resource="http://purl.org/dc/dcmitype/StillImage" /><dc:title></dc:title></cc:Work></rdf:RDF></metadata><defs
     id="defs20324"><clipPath
       id="clipPath20336"
       clipPathUnits="userSpaceOnUse"><path
         id="path20334"
         d="M 0,600 H 600 V 0 H 0 Z"
         inkscape:connector-curvature="0" /></clipPath></defs><g
     transform="matrix(1.3333333,0,0,-1.3333333,-26.667066,773.33331)"
     id="g20328"><g
       id="g20330"><g
         clip-path="url(#clipPath20336)"
         id="g20332"><g
           transform="translate(300.0003,28)"
           id="g20338"><path
             id="path20340"
             style="fill:#56c8ef;fill-opacity:1;fill-rule:nonzero;stroke:none"
             d="M 0,0 C -72.654,0 -140.959,28.293 -192.333,79.667 -243.707,131.041 -272,199.347 -272,272 c 0,72.654 28.293,140.959 79.667,192.333 C -140.959,515.707 -72.654,544 0,544 72.653,544 140.959,515.707 192.333,464.333 243.707,412.959 272,344.654 272,272 272,199.347 243.707,131.041 192.333,79.667 140.959,28.293 72.653,0 0,0"
             inkscape:connector-curvature="0" /></g><g
           transform="translate(300.0003,580)"
           id="g20342"><path
             id="path20344"
             style="fill:#ffffff;fill-opacity:1;fill-rule:nonzero;stroke:none"
             d="m 0,0 c -37.793,0 -74.464,-7.405 -108.994,-22.01 -33.344,-14.104 -63.286,-34.291 -88.996,-60 -25.709,-25.71 -45.897,-55.652 -60,-88.996 C -272.595,-205.537 -280,-242.207 -280,-280 c 0,-37.793 7.405,-74.464 22.01,-108.993 14.103,-33.345 34.291,-63.287 60,-88.997 25.71,-25.709 55.652,-45.897 88.996,-59.999 C -74.464,-552.595 -37.793,-560 0,-560 c 37.792,0 74.463,7.405 108.993,22.011 33.344,14.102 63.287,34.29 88.996,59.999 25.71,25.71 45.897,55.652 60,88.997 14.606,34.529 22.011,71.2 22.011,108.993 0,37.793 -7.405,74.463 -22.011,108.994 -14.103,33.344 -34.29,63.286 -60,88.996 -25.709,25.709 -55.652,45.896 -88.996,60 C 74.463,-7.405 37.792,0 0,0 m 0,-16 c 145.803,0 264,-118.197 264,-264 0,-145.803 -118.197,-264 -264,-264 -145.804,0 -264,118.197 -264,264 0,145.803 118.196,264 264,264"
             inkscape:connector-curvature="0" /></g><g
           transform="translate(300.0003,256.3574)"
           id="g20346"><path
             id="path20348"
             style="fill:#ffffff;fill-opacity:1;fill-rule:nonzero;stroke:none"
             d="M 0,0 -37.729,21.782 V 65.349 L 0,87.132 37.729,65.349 V 21.782 Z m 182.664,-2.602 -38.139,-27.986 -30.576,18.524 49.5,34.673 c 3.166,2.218 3.935,6.583 1.717,9.75 -2.219,3.165 -6.582,3.936 -9.75,1.717 L 100.863,-4.137 51.729,25.63 v 35.871 l 49.135,29.768 54.552,-38.214 c 1.223,-0.856 2.623,-1.267 4.011,-1.267 2.206,0 4.377,1.04 5.739,2.984 2.218,3.166 1.449,7.532 -1.717,9.749 l -49.499,34.675 30.575,18.524 38.139,-27.987 c 1.248,-0.916 2.698,-1.357 4.136,-1.357 2.153,0 4.278,0.99 5.649,2.859 2.287,3.118 1.614,7.498 -1.502,9.786 l -33.459,24.552 29.336,17.773 c 3.348,1.932 4.495,6.214 2.563,9.562 -1.933,3.348 -6.213,4.496 -9.563,2.562 l -30.065,-16.465 -4.529,41.199 c -0.421,3.844 -3.881,6.621 -7.722,6.193 -3.843,-0.422 -6.616,-3.879 -6.194,-7.722 l 5.161,-46.945 -31.334,-17.159 -5.268,60.069 c -0.338,3.85 -3.711,6.71 -7.585,6.361 -3.851,-0.337 -6.699,-3.733 -6.362,-7.584 L 91.729,107.227 41.16,79.534 10.482,97.246 9.212,154.965 69.49,183.06 c 3.504,1.632 5.021,5.797 3.388,9.301 -1.633,3.503 -5.796,5.022 -9.302,3.388 L 8.875,170.254 8.088,205.979 51.35,224.996 c 3.54,1.556 5.147,5.686 3.591,9.225 -1.556,3.538 -5.686,5.148 -9.224,3.591 L 7.755,221.125 7,255.404 c 0,3.867 -3.134,7 -7,7 -3.866,0 -7,-3.133 -7,-7 l -0.746,-34.282 -37.972,16.69 c -3.538,1.557 -7.67,-0.053 -9.224,-3.591 -1.556,-3.539 0.051,-7.669 3.591,-9.225 l 43.276,-19.022 -0.778,-35.73 -54.724,25.505 c -3.506,1.633 -7.668,0.116 -9.302,-3.388 -1.633,-3.504 -0.116,-7.669 3.388,-9.301 L -9.186,154.953 -10.439,97.27 -41.15,79.54 l -50.579,27.694 5.802,66.183 c 0.337,3.851 -2.51,7.247 -6.362,7.584 -3.858,0.347 -7.248,-2.511 -7.585,-6.361 l -5.266,-60.063 -31.334,17.157 5.159,46.941 c 0.422,3.843 -2.351,7.301 -6.194,7.722 -3.83,0.425 -7.3,-2.349 -7.722,-6.193 l -4.528,-41.196 -30.065,16.463 c -3.348,1.932 -7.629,0.785 -9.563,-2.563 -1.932,-3.347 -0.785,-7.629 2.563,-9.561 l 29.336,-17.773 -33.46,-24.553 c -3.116,-2.288 -3.789,-6.668 -1.502,-9.785 1.371,-1.869 3.496,-2.859 5.649,-2.859 1.438,0 2.888,0.441 4.136,1.356 l 38.14,27.987 30.575,-18.524 -49.5,-34.675 c -3.166,-2.217 -3.935,-6.583 -1.717,-9.749 1.362,-1.944 3.533,-2.984 5.739,-2.984 1.387,0 2.788,0.411 4.011,1.267 L -100.864,91.269 -51.729,61.5 V 26.002 l -49.316,-30.013 -54.373,38.087 c -3.164,2.219 -7.529,1.449 -9.749,-1.718 -2.218,-3.166 -1.449,-7.531 1.718,-9.749 l 49.346,-34.566 -30.509,-18.567 -38.053,27.922 c -3.118,2.289 -7.499,1.614 -9.785,-1.502 -2.287,-3.117 -1.614,-7.498 1.502,-9.785 l 33.399,-24.508 -29.275,-17.817 c -3.348,-1.933 -4.495,-6.215 -2.563,-9.562 1.297,-2.246 3.65,-3.501 6.07,-3.501 1.187,0 2.39,0.302 3.493,0.938 l 30.057,16.537 4.536,-41.27 c 0.393,-3.583 3.425,-6.237 6.949,-6.237 0.256,0 0.513,0.015 0.773,0.043 3.843,0.422 6.616,3.88 6.194,7.723 l -5.17,47.048 31.329,17.236 5.282,-60.249 c 0.319,-3.643 3.376,-6.388 6.966,-6.388 0.204,0 0.411,0.008 0.619,0.026 3.852,0.338 6.699,3.733 6.362,7.585 l -5.821,66.402 50.276,27.66 30.91,-17.845 1.299,-57.635 -60.228,-28.071 c -3.504,-1.633 -5.021,-5.798 -3.388,-9.302 1.188,-2.548 3.712,-4.045 6.35,-4.045 0.989,0 1.996,0.212 2.952,0.657 l 54.659,25.476 0.805,-35.717 -43.238,-19.006 c -3.54,-1.556 -5.147,-5.685 -3.591,-9.225 1.153,-2.623 3.719,-4.185 6.412,-4.185 0.94,0 1.896,0.191 2.812,0.594 l 37.946,16.679 0.772,-34.271 c 0,-3.866 3.134,-7 7,-7 3.866,0 7,3.134 7,7 l 0.729,34.291 37.988,-16.699 c 0.916,-0.404 1.872,-0.594 2.812,-0.594 2.693,0 5.26,1.562 6.412,4.185 1.556,3.54 -0.051,7.669 -3.59,9.225 l -43.301,19.034 0.759,35.739 54.767,-25.526 c 0.957,-0.446 1.962,-0.657 2.952,-0.657 2.637,0 5.162,1.497 6.35,4.045 1.633,3.504 0.116,7.669 -3.388,9.302 l -60.356,28.13 1.22,57.456 30.797,17.781 50.578,-27.695 -5.803,-66.183 c -0.337,-3.852 2.511,-7.247 6.362,-7.585 0.208,-0.018 0.414,-0.026 0.619,-0.026 3.59,0 6.646,2.745 6.966,6.388 l 5.267,60.064 31.333,-17.158 -5.159,-46.941 c -0.422,-3.843 2.351,-7.301 6.194,-7.723 0.26,-0.028 0.517,-0.043 0.773,-0.043 3.523,0 6.556,2.654 6.949,6.237 l 4.528,41.197 30.066,-16.464 c 1.103,-0.636 2.306,-0.938 3.493,-0.938 2.419,0 4.773,1.256 6.07,3.501 1.932,3.347 0.785,7.629 -2.563,9.562 l -29.336,17.773 33.459,24.552 c 3.116,2.287 3.789,6.668 1.502,9.785 -2.286,3.117 -6.667,3.791 -9.785,1.502"
             inkscape:connector-curvature="0" /></g></g></g></g></svg>