<?xml version="1.0" encoding="UTF-8" standalone="no"?>
<svg
   xmlns:dc="http://purl.org/dc/elements/1.1/"
   xmlns:cc="http://creativecommons.org/ns#"
   xmlns:rdf="http://www.w3.org/1999/02/22-rdf-syntax-ns#"
   xmlns:svg="http://www.w3.org/2000/svg"
   xmlns="http://www.w3.org/2000/svg"
   xmlns:sodipodi="http://sodipodi.sourceforge.net/DTD/sodipodi-0.dtd"
   xmlns:inkscape="http://www.inkscape.org/namespaces/inkscape"
   viewBox="0 0 771.59534 771.59332"
   height="771.59332"
   width="771.59534"
   xml:space="preserve"
   id="svg13629"
   version="1.1"
   sodipodi:docname="immobilize.svg"
   inkscape:version="0.92.0 r"><sodipodi:namedview
     pagecolor="#ffffff"
     bordercolor="#666666"
     borderopacity="1"
     objecttolerance="10"
     gridtolerance="10"
     guidetolerance="10"
     inkscape:pageopacity="0"
     inkscape:pageshadow="2"
     inkscape:window-width="834"
     inkscape:window-height="480"
     id="namedview13372"
     showgrid="false"
     fit-margin-top="0"
     fit-margin-left="0"
     fit-margin-right="0"
     fit-margin-bottom="0"
     inkscape:zoom="0.295"
     inkscape:cx="385.79767"
     inkscape:cy="385.7964"
     inkscape:window-x="0"
     inkscape:window-y="0"
     inkscape:window-maximized="0"
     inkscape:current-layer="svg13629" /><metadata
     id="metadata13635"><rdf:RDF><cc:Work
         rdf:about=""><dc:format>image/svg+xml</dc:format><dc:type
           rdf:resource="http://purl.org/dc/dcmitype/StillImage" /><dc:title></dc:title></cc:Work></rdf:RDF></metadata><defs
     id="defs13633"><clipPath
       id="clipPath13645"
       clipPathUnits="userSpaceOnUse"><path
         id="path13643"
         d="M 0,600 H 600 V 0 H 0 Z"
         inkscape:connector-curvature="0" /></clipPath></defs><g
     transform="matrix(1.3333333,0,0,-1.3333333,-14.202333,785.79691)"
     id="g13637"><g
       id="g13639"><g
         clip-path="url(#clipPath13645)"
         id="g13641"><g
           transform="translate(300,15.6523)"
           id="g13647"><path
             id="path13649"
             style="fill:#99282d;fill-opacity:1;fill-rule:nonzero;stroke:none"
             d="m 0,0 c -3.922,0 -7.608,1.527 -10.382,4.3 l -269.666,269.666 c -2.772,2.773 -4.3,6.46 -4.3,10.382 0,3.921 1.528,7.608 4.3,10.381 l 269.666,269.667 c 2.774,2.772 6.46,4.3 10.382,4.3 3.922,0 7.608,-1.528 10.382,-4.3 L 280.048,294.729 c 2.772,-2.773 4.3,-6.46 4.3,-10.381 0,-3.922 -1.528,-7.609 -4.3,-10.382 L 10.382,4.3 C 7.608,1.527 3.922,0 0,0"
             inkscape:connector-curvature="0" /></g><g
           transform="translate(300,589.3477)"
           id="g13651"><path
             id="path13653"
             style="fill:#ffffff;fill-opacity:1;fill-rule:nonzero;stroke:none"
             d="m 0,0 c -5.037,0 -10.073,-1.921 -13.917,-5.764 l -269.666,-269.667 c -7.687,-7.686 -7.687,-20.147 0,-27.834 l 269.666,-269.666 c 3.844,-3.842 8.88,-5.764 13.917,-5.764 5.037,0 10.073,1.922 13.917,5.764 l 269.666,269.666 c 7.687,7.687 7.687,20.148 0,27.834 L 13.917,-5.764 C 10.073,-1.921 5.037,0 0,0 m 0,-10 c 2.586,0 5.017,-1.007 6.846,-2.835 l 269.667,-269.667 c 3.774,-3.775 3.774,-9.917 0,-13.691 L 6.846,-565.859 c -1.829,-1.829 -4.26,-2.836 -6.846,-2.836 -2.586,0 -5.017,1.007 -6.846,2.836 l -269.667,269.666 c -3.774,3.774 -3.774,9.916 0,13.691 L -6.846,-12.835 C -5.017,-11.007 -2.586,-10 0,-10"
             inkscape:connector-curvature="0" /></g><g
           transform="translate(203.3125,205.6602)"
           id="g13655"><path
             id="path13657"
             style="fill:#ffffff;fill-opacity:1;fill-rule:nonzero;stroke:none"
             d="m 0,0 c 44.953,-43.753 99.49,-37.758 99.49,-37.758 0,0 0,2.994 1.795,8.39 11.39,2.399 38.959,0.599 41.954,0.599 3,0 8.99,-9.589 10.789,-12.585 7.79,0 53.343,13.185 60.534,22.175 3.594,11.39 -7.791,78.512 -14.385,109.08 32.363,86.902 16.779,112.071 16.779,112.071 -32.959,10.79 -52.138,6.595 -71.317,-0.6 -19.179,-7.189 -41.354,-2.995 -43.154,-4.789 -0.743,-0.745 1.612,-16.919 4.621,-36.375 0.105,-0.66 0.205,-1.32 0.308,-1.984 0.491,-3.144 0.982,-6.352 1.482,-9.59 0.105,-0.659 0.209,-1.319 0.318,-1.983 0.496,-3.144 0.992,-6.302 1.482,-9.421 0.09,-0.595 0.184,-1.19 0.279,-1.78 0.501,-3.263 1.006,-6.476 1.482,-9.59 0.114,-0.734 0.223,-1.463 0.337,-2.187 0.496,-3.282 0.977,-6.441 1.418,-9.416 0.14,-0.946 0.278,-1.874 0.407,-2.781 0.516,-3.56 0.957,-6.798 1.314,-9.59 0.049,-0.407 0.104,-0.798 0.149,-1.185 0.5,-3.957 0.788,-6.887 0.788,-8.404 0,-0.318 -0.019,-0.655 -0.064,-1.012 -0.065,-0.61 -0.194,-1.274 -0.377,-1.983 -0.7,-2.654 -2.122,-5.946 -4.007,-9.59 -0.337,-0.649 -0.689,-1.314 -1.056,-1.983 -8.053,-14.826 -22.328,-34.084 -24.46,-38.775 -38.358,0.6 -57.538,-8.99 -57.538,-8.99 L 11.989,33.563 C 11.989,33.563 0.6,25.77 0,0"
             inkscape:connector-curvature="0" /></g><g
           transform="translate(286.999,229.5264)"
           id="g13659"><path
             id="path13661"
             style="fill:none;stroke:#ffffff;stroke-width:10;stroke-linecap:round;stroke-linejoin:miter;stroke-miterlimit:10;stroke-dasharray:none;stroke-opacity:1"
             d="M 0,0 -113.107,158.178"
             inkscape:connector-curvature="0" /></g><g
           transform="translate(243.4258,360.6089)"
           id="g13663"><path
             id="path13665"
             style="fill:#ffffff;fill-opacity:1;fill-rule:nonzero;stroke:none"
             d="m 0,0 -7.902,-31.237 -40.633,56.605 7.903,31.237 z"
             inkscape:connector-curvature="0" /></g><g
           transform="translate(168.0146,367.8188)"
           id="g13667"><path
             id="path13669"
             style="fill:#ffffff;fill-opacity:1;fill-rule:nonzero;stroke:none"
             d="M 0,0 -32.543,1.495 9.365,-54.171 41.908,-55.667 Z"
             inkscape:connector-curvature="0" /></g></g></g></g></svg>