<?xml version="1.0" encoding="UTF-8" standalone="no"?>
<svg
   xmlns:dc="http://purl.org/dc/elements/1.1/"
   xmlns:cc="http://creativecommons.org/ns#"
   xmlns:rdf="http://www.w3.org/1999/02/22-rdf-syntax-ns#"
   xmlns:svg="http://www.w3.org/2000/svg"
   xmlns="http://www.w3.org/2000/svg"
   xmlns:sodipodi="http://sodipodi.sourceforge.net/DTD/sodipodi-0.dtd"
   xmlns:inkscape="http://www.inkscape.org/namespaces/inkscape"
   viewBox="0 0 340.31387 252.25507"
   height="252.25507"
   width="340.31387"
   xml:space="preserve"
   id="svg4656"
   version="1.1"
   sodipodi:docname="jump.svg"
   inkscape:version="0.92.0 r"><sodipodi:namedview
     pagecolor="#ffffff"
     bordercolor="#666666"
     borderopacity="1"
     objecttolerance="10"
     gridtolerance="10"
     guidetolerance="10"
     inkscape:pageopacity="0"
     inkscape:pageshadow="2"
     inkscape:window-width="834"
     inkscape:window-height="480"
     id="namedview14630"
     showgrid="false"
     fit-margin-top="0"
     fit-margin-left="0"
     fit-margin-right="0"
     fit-margin-bottom="0"
     inkscape:zoom="0.59"
     inkscape:cx="170.15747"
     inkscape:cy="126.12814"
     inkscape:window-x="0"
     inkscape:window-y="0"
     inkscape:window-maximized="0"
     inkscape:current-layer="svg4656" /><metadata
     id="metadata4662"><rdf:RDF><cc:Work
         rdf:about=""><dc:format>image/svg+xml</dc:format><dc:type
           rdf:resource="http://purl.org/dc/dcmitype/StillImage" /><dc:title></dc:title></cc:Work></rdf:RDF></metadata><defs
     id="defs4660"><clipPath
       id="clipPath4672"
       clipPathUnits="userSpaceOnUse"><path
         id="path4670"
         d="M 0,300 H 300 V 0 H 0 Z"
         inkscape:connector-curvature="0" /></clipPath></defs><g
     transform="matrix(1.3333333,0,0,-1.3333333,-29.842533,326.12693)"
     id="g4664"><g
       style="fill:#ffffff"
       id="g4666"><g
         style="fill:#ffffff"
         clip-path="url(#clipPath4672)"
         id="g4668"><g
           style="fill:#ffffff"
           transform="translate(129.5013,124.2959)"
           id="g4674"><path
             id="path4676"
             style="fill:#ffffff;fill-opacity:1;fill-rule:nonzero;stroke:none"
             d="m 0,0 c -22.726,0 -41.146,-9.21 -41.146,-20.573 0,-11.363 18.42,-20.573 41.146,-20.573 22.72,0 41.146,9.21 41.146,20.573 C 41.146,-9.21 22.72,0 0,0"
             inkscape:connector-curvature="0" /></g><g
           style="fill:#ffffff"
           transform="translate(166.8929,148.1709)"
           id="g4678"><path
             id="path4680"
             style="fill:#ffffff;fill-opacity:1;fill-rule:nonzero;stroke:none"
             d="M 0,0 C -2.39,-3.46 -4.438,-7.159 -6.105,-11.045 H 3.409 L 44.213,-46.383 3.409,-81.719 h -81.606 l -40.804,35.336 40.804,35.338 h 17.202 c 0.811,3.735 1.81,7.42 2.988,11.045 h -32.945 l -53.559,-46.383 53.559,-46.384 H 16.164 L 69.722,-46.383 16.164,0 Z"
             inkscape:connector-curvature="0" /></g><g
           style="fill:#ffffff"
           transform="translate(129.4993,94.7012)"
           id="g4682"><path
             id="path4684"
             style="fill:#ffffff;fill-opacity:1;fill-rule:nonzero;stroke:none"
             d="m 0,0 c -9.896,0 -17.949,8.052 -17.949,17.949 0,26.7 9.938,52.28 27.984,72.026 16.786,18.366 39.202,30.229 63.57,33.742 v 26.177 L 148.118,106.868 73.605,63.841 V 87.256 C 41.471,80.177 17.95,51.424 17.95,17.949 17.95,8.052 9.897,0 0,0"
             inkscape:connector-curvature="0" /></g></g></g></g></svg>