<?xml version="1.0" encoding="UTF-8" standalone="no"?>
<svg
   xmlns:dc="http://purl.org/dc/elements/1.1/"
   xmlns:cc="http://creativecommons.org/ns#"
   xmlns:rdf="http://www.w3.org/1999/02/22-rdf-syntax-ns#"
   xmlns:svg="http://www.w3.org/2000/svg"
   xmlns="http://www.w3.org/2000/svg"
   xmlns:sodipodi="http://sodipodi.sourceforge.net/DTD/sodipodi-0.dtd"
   xmlns:inkscape="http://www.inkscape.org/namespaces/inkscape"
   viewBox="0 0 304 370.50558"
   height="370.50558"
   width="304"
   xml:space="preserve"
   id="svg5282"
   version="1.1"
   sodipodi:docname="loot.svg"
   inkscape:version="0.92.0 r"><sodipodi:namedview
     pagecolor="#ffffff"
     bordercolor="#666666"
     borderopacity="1"
     objecttolerance="10"
     gridtolerance="10"
     guidetolerance="10"
     inkscape:pageopacity="0"
     inkscape:pageshadow="2"
     inkscape:window-width="834"
     inkscape:window-height="480"
     id="namedview15907"
     showgrid="false"
     fit-margin-top="0"
     fit-margin-left="0"
     fit-margin-right="0"
     fit-margin-bottom="0"
     inkscape:zoom="0.59"
     inkscape:cx="151.9996"
     inkscape:cy="185.25253"
     inkscape:window-x="270"
     inkscape:window-y="290"
     inkscape:window-maximized="0"
     inkscape:current-layer="svg5282" /><metadata
     id="metadata5288"><rdf:RDF><cc:Work
         rdf:about=""><dc:format>image/svg+xml</dc:format><dc:type
           rdf:resource="http://purl.org/dc/dcmitype/StillImage" /><dc:title></dc:title></cc:Work></rdf:RDF></metadata><defs
     id="defs5286"><clipPath
       id="clipPath5298"
       clipPathUnits="userSpaceOnUse"><path
         id="path5296"
         d="M 0,300 H 300 V 0 H 0 Z"
         inkscape:connector-curvature="0" /></clipPath></defs><g
     transform="matrix(1.3333333,0,0,-1.3333333,-48.000399,385.25306)"
     id="g5290"><g
       style="fill:#ffffff"
       id="g5292"><g
         style="fill:#ffffff"
         clip-path="url(#clipPath5298)"
         id="g5294"><g
           style="fill:#ffffff"
           transform="translate(264.0003,65.6006)"
           id="g5300"><path
             id="path5302"
             style="fill:#ffffff;fill-opacity:1;fill-rule:nonzero;stroke:none"
             d="m 0,0 v -2.54 c 0,-28.721 -51.04,-52 -114,-52 -62.96,0 -114,23.279 -114,52 0,0.239 0.01,0.479 0.02,0.72 v 1.79 c 6.65,-7.83 16.5,-14.83 29.219,-20.63 22.811,-10.401 52.91,-16.13 84.761,-16.13 31.85,0 61.95,5.729 84.76,16.13 C -16.5,-14.851 -6.65,-7.841 0,0"
             inkscape:connector-curvature="0" /></g><g
           style="fill:#ffffff"
           transform="translate(264.0003,90.8096)"
           id="g5304"><path
             id="path5306"
             style="fill:#ffffff;fill-opacity:1;fill-rule:nonzero;stroke:none"
             d="m 0,0 c 0,-28.72 -51.04,-52 -114,-52 -62.96,0 -114,23.28 -114,52 0,21.69 29.12,40.28 70.5,48.07 V -10 h 87 V 48.07 C -29.12,40.28 0,21.69 0,0"
             inkscape:connector-curvature="0" /></g><g
           style="fill:#ffffff"
           transform="translate(226.2903,156.8198)"
           id="g5308"><path
             id="path5310"
             style="fill:#ffffff;fill-opacity:1;fill-rule:nonzero;stroke:none"
             d="m 0,0 h -42.79 v -66.01 h -67 V 0 h -42.79 l 76.29,132.12 z"
             inkscape:connector-curvature="0" /></g></g></g></g></svg>