<?xml version="1.0" encoding="UTF-8" standalone="no"?>
<svg
   xmlns:dc="http://purl.org/dc/elements/1.1/"
   xmlns:cc="http://creativecommons.org/ns#"
   xmlns:rdf="http://www.w3.org/1999/02/22-rdf-syntax-ns#"
   xmlns:svg="http://www.w3.org/2000/svg"
   xmlns="http://www.w3.org/2000/svg"
   xmlns:sodipodi="http://sodipodi.sourceforge.net/DTD/sodipodi-0.dtd"
   xmlns:inkscape="http://www.inkscape.org/namespaces/inkscape"
   viewBox="0 0 319.99966 265.94257"
   height="265.94257"
   width="319.99966"
   xml:space="preserve"
   id="svg7646"
   version="1.1"
   sodipodi:docname="move.svg"
   inkscape:version="0.92.0 r"><sodipodi:namedview
     pagecolor="#ffffff"
     bordercolor="#666666"
     borderopacity="1"
     objecttolerance="10"
     gridtolerance="10"
     guidetolerance="10"
     inkscape:pageopacity="0"
     inkscape:pageshadow="2"
     inkscape:window-width="834"
     inkscape:window-height="480"
     id="namedview16514"
     showgrid="false"
     fit-margin-top="0"
     fit-margin-left="0"
     fit-margin-right="0"
     fit-margin-bottom="0"
     inkscape:zoom="0.59"
     inkscape:cx="159.99988"
     inkscape:cy="132.97134"
     inkscape:window-x="-4"
     inkscape:window-y="54"
     inkscape:window-maximized="0"
     inkscape:current-layer="svg7646" /><metadata
     id="metadata7652"><rdf:RDF><cc:Work
         rdf:about=""><dc:format>image/svg+xml</dc:format><dc:type
           rdf:resource="http://purl.org/dc/dcmitype/StillImage" /><dc:title></dc:title></cc:Work></rdf:RDF></metadata><defs
     id="defs7650"><clipPath
       id="clipPath7662"
       clipPathUnits="userSpaceOnUse"><path
         id="path7660"
         d="M 0,300 H 300 V 0 H 0 Z"
         inkscape:connector-curvature="0" /></clipPath></defs><g
     transform="matrix(1.3333333,0,0,-1.3333333,-40.000116,332.97122)"
     id="g7654"><g
       style="fill:#ffffff"
       id="g7656"><g
         style="fill:#ffffff"
         clip-path="url(#clipPath7662)"
         id="g7658"><g
           style="fill:#ffffff"
           transform="translate(32.1006,249.3965)"
           id="g7664"><path
             id="path7666"
             style="fill:#ffffff;fill-opacity:1;fill-rule:nonzero;stroke:none"
             d="m 0,0 c 8.271,-7.591 36.133,-30.492 75.469,-34.946 0.598,-0.068 1.066,-0.546 1.11,-1.147 1.565,-21.368 5.244,-53.902 28.692,-98.315 0.35,-0.663 1.205,-0.874 1.822,-0.448 2.786,1.924 5.61,3.955 6.998,4.959 0.505,0.366 0.662,1.043 0.37,1.595 -2.657,5.032 -14.981,29.089 -20.245,52.115 -0.126,0.551 0.132,1.116 0.631,1.382 12.297,6.551 55.927,26.726 65.282,31.042 0.83,0.383 1.774,-0.224 1.774,-1.138 v -77.94 c 0,-0.322 -0.125,-0.632 -0.347,-0.865 l -36.981,-38.679 c -0.236,-0.248 -0.361,-0.582 -0.346,-0.925 l 1.644,-34.503 c 0.034,-0.714 -0.536,-1.312 -1.251,-1.312 H 64.707 c -0.889,0 -1.494,0.899 -1.16,1.723 l 12.865,31.71 c 0.061,0.15 0.092,0.309 0.092,0.47 v 26.455 c 0,0.476 -0.269,0.908 -0.693,1.121 -1.973,0.992 -7.372,4.434 -5.811,11.81 0.151,0.714 -0.351,1.404 -1.076,1.486 -11.17,1.271 -26.378,5.539 -32.903,13.715 -0.707,0.886 -0.006,2.17 1.12,2.039 7.669,-0.891 16.389,0.777 21.218,1.947 1.174,0.284 1.302,1.904 0.188,2.369 -9.344,3.904 -34.436,16.326 -40.807,39.305 -0.295,1.066 0.821,1.965 1.799,1.449 12.901,-6.796 24.064,-8.896 30.198,-9.537 1.313,-0.137 1.91,1.59 0.799,2.301 C 38.348,-62.954 3.675,-37.8 -2.084,-1.122 -2.268,0.047 -0.872,0.8 0,0"
             inkscape:connector-curvature="0" /></g><g
           style="fill:#ffffff"
           transform="translate(176.7578,50.2715)"
           id="g7668"><path
             id="path7670"
             style="fill:#ffffff;fill-opacity:1;fill-rule:nonzero;stroke:none"
             d="m 0,0 h 91.741 c 0.835,0 1.507,0.681 1.501,1.516 C 93.173,10.822 89.779,59.86 25.993,60.2 25.572,60.203 25.167,60.028 24.881,59.72 20.3,54.782 0.459,34.383 -2.825,31.008 -3.12,30.705 -3.271,30.293 -3.246,29.871 L -1.498,1.408 C -1.449,0.617 -0.793,0 0,0"
             inkscape:connector-curvature="0" /></g></g></g></g></svg>