<?xml version="1.0" encoding="UTF-8" standalone="no"?>
<!-- Created with Inkscape (http://www.inkscape.org/) -->

<svg
   xmlns:dc="http://purl.org/dc/elements/1.1/"
   xmlns:cc="http://creativecommons.org/ns#"
   xmlns:rdf="http://www.w3.org/1999/02/22-rdf-syntax-ns#"
   xmlns:svg="http://www.w3.org/2000/svg"
   xmlns="http://www.w3.org/2000/svg"
   xmlns:sodipodi="http://sodipodi.sourceforge.net/DTD/sodipodi-0.dtd"
   xmlns:inkscape="http://www.inkscape.org/namespaces/inkscape"
   width="160mm"
   height="160mm"
   viewBox="0 0 160 160"
   version="1.1"
   id="svg6261"
   sodipodi:docname="settings.svg"
   inkscape:version="0.92.0 r">
  <defs
     id="defs6255" />
  <sodipodi:namedview
     id="base"
     pagecolor="#ffffff"
     bordercolor="#666666"
     borderopacity="1.0"
     inkscape:pageopacity="0.0"
     inkscape:pageshadow="2"
     inkscape:zoom="0.7"
     inkscape:cx="266.9433"
     inkscape:cy="227.33775"
     inkscape:document-units="mm"
     inkscape:current-layer="layer1"
     showgrid="false"
     fit-margin-top="0"
     fit-margin-left="0"
     fit-margin-right="0"
     fit-margin-bottom="0"
     inkscape:pagecheckerboard="true"
     inkscape:window-width="1918"
     inkscape:window-height="1061"
     inkscape:window-x="0"
     inkscape:window-y="17"
     inkscape:window-maximized="0" />
  <metadata
     id="metadata6258">
    <rdf:RDF>
      <cc:Work
         rdf:about="">
        <dc:format>image/svg+xml</dc:format>
        <dc:type
           rdf:resource="http://purl.org/dc/dcmitype/StillImage" />
        <dc:title></dc:title>
      </cc:Work>
    </rdf:RDF>
  </metadata>
  <g
     inkscape:label="Layer 1"
     inkscape:groupmode="layer"
     id="layer1"
     transform="translate(-24.559893,-53.865665)">
    <path
       inkscape:connector-curvature="0"
       id="path6821"
       style="font-style:normal;font-weight:normal;font-size:176.3888855px;line-height:6.61458302px;font-family:sans-serif;letter-spacing:0px;word-spacing:0px;fill:#000000;fill-opacity:1;stroke:none;stroke-width:0.26458332px;stroke-linecap:butt;stroke-linejoin:miter;stroke-opacity:1"
       d="m 97.066808,68.710299 q 3.703482,-0.430637 7.493082,-0.430637 3.7896,0 7.49308,0.430637 l 2.23931,16.105821 q 5.77054,1.119656 11.28269,3.703478 l 10.85205,-11.368815 q 6.54568,3.875732 12.05784,9.387885 l -7.23471,13.435872 q 4.04799,4.30637 6.8902,9.47401 l 14.21101,-2.66995 q 3.18672,7.2347 4.56476,15.15842 l -12.74686,5.94279 q 0.34451,3.01446 0.34451,5.94279 0,2.92833 -0.34451,5.94279 l 12.74686,6.02892 q -1.37804,7.83759 -4.56476,15.07229 l -14.21101,-2.66995 q -2.84221,5.16765 -6.8902,9.56014 l 7.23471,13.34975 q -5.51216,5.51215 -12.05784,9.47401 l -10.85205,-11.36881 q -5.51215,2.49769 -11.28269,3.70347 l -2.23931,16.0197 q -3.70348,0.51676 -7.49308,0.51676 -3.7896,0 -7.493082,-0.51676 l -2.239312,-16.0197 q -5.770535,-1.20578 -11.282688,-3.70347 l -10.85205,11.36881 q -6.545681,-3.96186 -12.057834,-9.47401 l 7.2347,-13.34975 q -4.047987,-4.30637 -6.890191,-9.56014 l -14.211018,2.66995 q -3.186713,-7.2347 -4.564752,-15.07229 l 12.746853,-6.02892 q -0.344509,-3.01446 -0.344509,-5.94279 0,-2.92833 0.344509,-5.94279 l -12.746853,-5.94279 q 1.378039,-7.92372 4.564752,-15.15842 l 14.211018,2.66995 q 2.842204,-5.16764 6.890191,-9.560138 l -7.2347,-13.349744 q 5.512153,-5.512153 12.057834,-9.387885 l 10.85205,11.282687 q 5.512153,-2.497694 11.282688,-3.61735 z m 34.278702,38.412811 q -11.11044,-11.196557 -26.78562,-11.196557 -15.675184,0 -26.785616,11.196557 -11.110433,11.11044 -11.110433,26.78562 0,15.58906 11.110433,26.69949 11.110432,11.11043 26.785616,11.11043 15.67518,0 26.78562,-11.11043 11.11043,-11.11043 11.11043,-26.69949 0,-15.67518 -11.11043,-26.78562 z m -17.39774,17.31161 q 3.96186,3.87573 3.96186,9.38788 0,5.51216 -3.96186,9.47402 -3.87573,3.87573 -9.38788,3.87573 -5.512152,0 -9.474012,-3.87573 -3.875732,-3.96186 -3.875732,-9.47402 0,-5.51215 3.875732,-9.38788 3.96186,-3.96186 9.474012,-3.96186 5.51215,0 9.38788,3.96186 z" />
    <flowRoot
       xml:space="preserve"
       id="flowRoot6810"
       style="font-style:normal;font-weight:normal;font-size:40px;line-height:25px;font-family:sans-serif;letter-spacing:0px;word-spacing:0px;fill:#000000;fill-opacity:1;stroke:none;stroke-width:1px;stroke-linecap:butt;stroke-linejoin:miter;stroke-opacity:1"
       transform="scale(0.26458333)"><flowRegion
         id="flowRegion6812"><rect
           id="rect6814"
           width="2.8571429"
           height="145.71428"
           x="1065.7142"
           y="559.66254" /></flowRegion><flowPara
         id="flowPara6816"></flowPara></flowRoot>    <rect
       style="opacity:1;fill:none;fill-opacity:1;stroke:#000000;stroke-width:10;stroke-miterlimit:4;stroke-dasharray:none;stroke-opacity:1"
       id="rect7404"
       width="150"
       height="150"
       x="29.559893"
       y="58.865665"
       rx="30"
       ry="30" />
  </g>
</svg>
