<?xml version="1.0" encoding="UTF-8" standalone="no"?>
<svg
   xmlns:dc="http://purl.org/dc/elements/1.1/"
   xmlns:cc="http://creativecommons.org/ns#"
   xmlns:rdf="http://www.w3.org/1999/02/22-rdf-syntax-ns#"
   xmlns:svg="http://www.w3.org/2000/svg"
   xmlns="http://www.w3.org/2000/svg"
   viewBox="0 0 400 400"
   height="400"
   width="400"
   xml:space="preserve"
   id="svg9422"
   version="1.1"><metadata
     id="metadata9428"><rdf:RDF><cc:Work
         rdf:about=""><dc:format>image/svg+xml</dc:format><dc:type
           rdf:resource="http://purl.org/dc/dcmitype/StillImage" /><dc:title></dc:title></cc:Work></rdf:RDF></metadata><defs
     id="defs9426"><clipPath
       id="clipPath9438"
       clipPathUnits="userSpaceOnUse"><path
         id="path9436"
         d="M 0,300 H 300 V 0 H 0 Z" /></clipPath></defs><g
     transform="matrix(1.3333333,0,0,-1.3333333,0,400)"
     id="g9430"><g
       style="fill:#ffffff"
       id="g9432"><g
         style="fill:#ffffff"
         clip-path="url(#clipPath9438)"
         id="g9434"><g
           style="fill:#ffffff"
           transform="translate(260.2741,241.6924)"
           id="g9440"><path
             id="path9442"
             style="fill:#ffffff;fill-opacity:1;fill-rule:nonzero;stroke:none"
             d="m 0,0 c 0.49,1.955 -0.669,3.942 -2.609,4.487 -27.946,7.849 -88.191,9.827 -107.665,19.404 -19.474,-9.577 -79.719,-11.555 -107.665,-19.404 -1.94,-0.545 -3.099,-2.532 -2.609,-4.487 14.509,-57.853 -13.349,-87.76 -6.732,-129.802 7.503,-47.677 92.543,-55.038 117.006,-77.474 24.462,22.436 109.503,29.797 117.006,77.474 C 13.349,-87.76 -14.51,-57.853 0,0" /></g></g></g></g></svg>