<?xml version="1.0" encoding="UTF-8" standalone="no"?>
<!-- Created with Inkscape (http://www.inkscape.org/) -->

<svg
   xmlns:dc="http://purl.org/dc/elements/1.1/"
   xmlns:cc="http://creativecommons.org/ns#"
   xmlns:rdf="http://www.w3.org/1999/02/22-rdf-syntax-ns#"
   xmlns:svg="http://www.w3.org/2000/svg"
   xmlns="http://www.w3.org/2000/svg"
   xmlns:sodipodi="http://sodipodi.sourceforge.net/DTD/sodipodi-0.dtd"
   xmlns:inkscape="http://www.inkscape.org/namespaces/inkscape"
   version="1.1"
   id="svg3770"
   xml:space="preserve"
   width="400"
   height="400"
   viewBox="0 0 400 400"
   sodipodi:docname="shuffle-black.svg"
   inkscape:version="0.92.1 r15371"><metadata
     id="metadata3776"><rdf:RDF><cc:Work
         rdf:about=""><dc:format>image/svg+xml</dc:format><dc:type
           rdf:resource="http://purl.org/dc/dcmitype/StillImage" /><dc:title></dc:title></cc:Work></rdf:RDF></metadata><defs
     id="defs3774"><clipPath
       clipPathUnits="userSpaceOnUse"
       id="clipPath3786"><path
         d="M 0,300 H 300 V 0 H 0 Z"
         id="path3784"
         inkscape:connector-curvature="0" /></clipPath></defs><sodipodi:namedview
     pagecolor="#ffffff"
     bordercolor="#666666"
     borderopacity="1"
     objecttolerance="10"
     gridtolerance="10"
     guidetolerance="10"
     inkscape:pageopacity="0"
     inkscape:pageshadow="2"
     inkscape:window-width="1482"
     inkscape:window-height="1362"
     id="namedview3772"
     showgrid="false"
     inkscape:zoom="3.345"
     inkscape:cx="200"
     inkscape:cy="415.24664"
     inkscape:window-x="118"
     inkscape:window-y="43"
     inkscape:window-maximized="0"
     inkscape:current-layer="g3778" /><g
     id="g3778"
     inkscape:groupmode="layer"
     inkscape:label="General Icons"
     transform="matrix(1.3333333,0,0,-1.3333333,0,400)"><g
       id="g3780"><g
         id="g3782"
         clip-path="url(#clipPath3786)"><g
           id="g3788"
           transform="translate(269.9258,156.132)"><path
             d="m 0,0 c -1.537,29.632 -13.804,57.273 -34.94,78.411 -22.642,22.641 -52.748,35.113 -84.767,35.113 -32.019,0 -62.121,-12.472 -84.762,-35.113 -12.552,-12.553 -21.97,-27.399 -27.876,-43.593 l 34.786,35.466 9.642,-34.622 c 14.131,22.859 39.419,38.124 68.21,38.124 38.353,0 70.493,-27.083 78.314,-63.128 l -16.708,4.302 21.265,-76.343 55.491,56.579 z"
             style="fill:#231f20;fill-opacity:1;fill-rule:nonzero;stroke:none"
             id="path3790"
             inkscape:connector-curvature="0" /></g><g
           id="g3792"
           transform="translate(227.6387,73.5891)"><path
             d="m 0,0 -9.642,34.621 c -14.127,-22.864 -39.42,-38.129 -68.215,-38.129 -38.353,0 -70.493,27.083 -78.314,63.128 l 16.706,-4.303 -21.26,76.345 -55.494,-56.576 18.655,-4.805 c 1.536,-29.634 13.802,-57.275 34.94,-78.413 22.641,-22.645 52.748,-35.113 84.767,-35.113 32.019,0 62.121,12.468 84.761,35.113 C 19.461,4.426 28.89,19.272 34.79,35.471 Z"
             style="fill:#231f20;fill-opacity:1;fill-rule:nonzero;stroke:none"
             id="path3794"
             inkscape:connector-curvature="0" /></g></g></g></g></svg>