<?xml version="1.0" encoding="UTF-8" standalone="no"?>
<svg
   xmlns:dc="http://purl.org/dc/elements/1.1/"
   xmlns:cc="http://creativecommons.org/ns#"
   xmlns:rdf="http://www.w3.org/1999/02/22-rdf-syntax-ns#"
   xmlns:svg="http://www.w3.org/2000/svg"
   xmlns="http://www.w3.org/2000/svg"
   viewBox="0 0 400 400"
   height="400"
   width="400"
   xml:space="preserve"
   id="svg11178"
   version="1.1"><metadata
     id="metadata11184"><rdf:RDF><cc:Work
         rdf:about=""><dc:format>image/svg+xml</dc:format><dc:type
           rdf:resource="http://purl.org/dc/dcmitype/StillImage" /><dc:title></dc:title></cc:Work></rdf:RDF></metadata><defs
     id="defs11182"><clipPath
       id="clipPath11194"
       clipPathUnits="userSpaceOnUse"><path
         id="path11192"
         d="M 0,300 H 300 V 0 H 0 Z" /></clipPath></defs><g
     transform="matrix(1.3333333,0,0,-1.3333333,0,400)"
     id="g11186"><g
       style="fill:#ffffff"
       id="g11188"><g
         style="fill:#ffffff"
         clip-path="url(#clipPath11194)"
         id="g11190"><g
           style="fill:#ffffff"
           transform="translate(269.9258,156.132)"
           id="g11196"><path
             id="path11198"
             style="fill:#ffffff;fill-opacity:1;fill-rule:nonzero;stroke:none"
             d="m 0,0 c -1.537,29.632 -13.804,57.273 -34.94,78.411 -22.642,22.641 -52.748,35.113 -84.767,35.113 -32.019,0 -62.121,-12.472 -84.762,-35.113 -12.552,-12.553 -21.97,-27.399 -27.876,-43.593 l 34.786,35.466 9.642,-34.622 c 14.131,22.859 39.419,38.124 68.21,38.124 38.353,0 70.493,-27.083 78.314,-63.128 l -16.708,4.302 21.265,-76.343 55.491,56.579 z" /></g><g
           style="fill:#ffffff"
           transform="translate(227.6387,73.5891)"
           id="g11200"><path
             id="path11202"
             style="fill:#ffffff;fill-opacity:1;fill-rule:nonzero;stroke:none"
             d="m 0,0 -9.642,34.621 c -14.127,-22.864 -39.42,-38.129 -68.215,-38.129 -38.353,0 -70.493,27.083 -78.314,63.128 l 16.706,-4.303 -21.26,76.345 -55.494,-56.576 18.655,-4.805 c 1.536,-29.634 13.802,-57.275 34.94,-78.413 22.641,-22.645 52.748,-35.113 84.767,-35.113 32.019,0 62.121,12.468 84.761,35.113 C 19.461,4.426 28.89,19.272 34.79,35.471 Z" /></g></g></g></g></svg>