<?xml version="1.0" encoding="UTF-8" standalone="no"?>
<svg
   xmlns:dc="http://purl.org/dc/elements/1.1/"
   xmlns:cc="http://creativecommons.org/ns#"
   xmlns:rdf="http://www.w3.org/1999/02/22-rdf-syntax-ns#"
   xmlns:svg="http://www.w3.org/2000/svg"
   xmlns="http://www.w3.org/2000/svg"
   viewBox="0 0 400 400"
   height="400"
   width="400"
   xml:space="preserve"
   id="svg10590"
   version="1.1"><metadata
     id="metadata10596"><rdf:RDF><cc:Work
         rdf:about=""><dc:format>image/svg+xml</dc:format><dc:type
           rdf:resource="http://purl.org/dc/dcmitype/StillImage" /><dc:title></dc:title></cc:Work></rdf:RDF></metadata><defs
     id="defs10594"><clipPath
       id="clipPath10606"
       clipPathUnits="userSpaceOnUse"><path
         id="path10604"
         d="M 0,300 H 300 V 0 H 0 Z" /></clipPath></defs><g
     transform="matrix(1.3333333,0,0,-1.3333333,0,400)"
     id="g10598"><g
       style="fill:#ffffff"
       id="g10600"><g
         style="fill:#ffffff"
         clip-path="url(#clipPath10606)"
         id="g10602"><g
           style="fill:#ffffff"
           transform="translate(149.9997,62.9336)"
           id="g10608"><path
             id="path10610"
             style="fill:#ffffff;fill-opacity:1;fill-rule:nonzero;stroke:none"
             d="m 0,0 c -48.085,0 -87.066,38.981 -87.066,87.066 0,48.085 38.981,87.067 87.066,87.067 48.086,0 87.066,-38.982 87.066,-87.067 C 87.066,38.981 48.086,0 0,0 m 0,202.755 c -63.893,0 -115.688,-51.796 -115.688,-115.689 0,-63.892 51.795,-115.688 115.688,-115.688 63.894,0 115.688,51.796 115.688,115.688 0,63.893 -51.794,115.689 -115.688,115.689" /></g><g
           style="fill:#ffffff"
           transform="translate(149.9997,109.2998)"
           id="g10612"><path
             id="path10614"
             style="fill:#ffffff;fill-opacity:1;fill-rule:nonzero;stroke:none"
             d="m 0,0 c -22.478,0 -40.699,18.223 -40.699,40.7 0,22.478 18.221,40.7 40.699,40.7 22.479,0 40.7,-18.222 40.7,-40.7 C 40.7,18.223 22.479,0 0,0 m 0,113.636 c -40.281,0 -72.936,-32.655 -72.936,-72.936 0,-40.281 32.655,-72.935 72.936,-72.935 40.281,0 72.936,32.654 72.936,72.935 0,40.281 -32.655,72.936 -72.936,72.936" /></g></g></g></g></svg>