<?xml version="1.0" encoding="UTF-8" standalone="no"?>
<svg
   xmlns:dc="http://purl.org/dc/elements/1.1/"
   xmlns:cc="http://creativecommons.org/ns#"
   xmlns:rdf="http://www.w3.org/1999/02/22-rdf-syntax-ns#"
   xmlns:svg="http://www.w3.org/2000/svg"
   xmlns="http://www.w3.org/2000/svg"
   xmlns:sodipodi="http://sodipodi.sourceforge.net/DTD/sodipodi-0.dtd"
   xmlns:inkscape="http://www.inkscape.org/namespaces/inkscape"
   viewBox="0 0 746.66663 746.66663"
   height="746.66663"
   width="746.66663"
   xml:space="preserve"
   id="svg23280"
   version="1.1"
   sodipodi:docname="use_element.svg"
   inkscape:version="0.92.0 r"><sodipodi:namedview
     pagecolor="#ffffff"
     bordercolor="#666666"
     borderopacity="1"
     objecttolerance="10"
     gridtolerance="10"
     guidetolerance="10"
     inkscape:pageopacity="0"
     inkscape:pageshadow="2"
     inkscape:window-width="834"
     inkscape:window-height="480"
     id="namedview23909"
     showgrid="false"
     fit-margin-top="0"
     fit-margin-left="0"
     fit-margin-right="0"
     fit-margin-bottom="0"
     inkscape:zoom="0.295"
     inkscape:cx="373.33333"
     inkscape:cy="373.33333"
     inkscape:window-x="0"
     inkscape:window-y="0"
     inkscape:window-maximized="0"
     inkscape:current-layer="svg23280" /><metadata
     id="metadata23286"><rdf:RDF><cc:Work
         rdf:about=""><dc:format>image/svg+xml</dc:format><dc:type
           rdf:resource="http://purl.org/dc/dcmitype/StillImage" /><dc:title></dc:title></cc:Work></rdf:RDF></metadata><defs
     id="defs23284"><clipPath
       id="clipPath23296"
       clipPathUnits="userSpaceOnUse"><path
         id="path23294"
         d="M 0,600 H 600 V 0 H 0 Z"
         inkscape:connector-curvature="0" /></clipPath></defs><g
     transform="matrix(1.3333333,0,0,-1.3333333,-26.666666,773.33331)"
     id="g23288"><g
       id="g23290"><g
         clip-path="url(#clipPath23296)"
         id="g23292"><g
           transform="translate(300,554)"
           id="g23298"><path
             id="path23300"
             style="fill:#ffffff;fill-opacity:1;fill-rule:nonzero;stroke:none"
             d="m 0,0 c -140.056,0 -254,-113.944 -254,-254 0,-140.056 113.944,-254 254,-254 140.056,0 254,113.944 254,254 C 254,-113.944 140.056,0 0,0 m 0,-529.566 c -37.189,0 -73.281,7.289 -107.271,21.666 -32.816,13.879 -62.284,33.746 -87.584,59.045 -25.301,25.302 -45.166,54.769 -59.045,87.584 -14.377,33.989 -21.666,70.08 -21.666,107.271 0,37.191 7.289,73.282 21.666,107.27 13.879,32.816 33.744,62.283 59.045,87.585 25.301,25.301 54.769,45.166 87.584,59.045 33.99,14.377 70.082,21.666 107.271,21.666 37.189,0 73.281,-7.289 107.271,-21.666 32.815,-13.879 62.283,-33.744 87.584,-59.045 25.3,-25.301 45.167,-54.769 59.046,-87.585 14.376,-33.988 21.665,-70.08 21.665,-107.27 0,-37.19 -7.289,-73.282 -21.665,-107.271 -13.879,-32.815 -33.746,-62.283 -59.046,-87.584 -25.3,-25.299 -54.768,-45.166 -87.584,-59.045 C 73.281,-522.277 37.189,-529.566 0,-529.566"
             inkscape:connector-curvature="0" /></g><g
           transform="translate(470.4717,90.2558)"
           id="g23302"><path
             id="path23304"
             style="fill:#e34e61;fill-opacity:1;fill-rule:nonzero;stroke:none"
             d="M 0,0 C -2.607,0.001 -4.236,1.082 -5.144,1.99 L -170.472,167.317 -335.8,1.99 C -336.707,1.082 -338.337,0 -340.944,0 c -9.428,0 -33.532,18.093 -39.001,31.297 -2.906,7.014 -0.17,11.23 1.719,13.119 l 165.328,165.328 -165.328,165.328 c -2.085,2.084 -5.047,6.872 -1.467,15.515 5.437,13.127 23.817,30.064 35.888,30.064 3.175,0 5.944,-1.09 8.005,-3.153 L -170.472,252.171 -5.144,417.498 c 2.062,2.063 4.831,3.153 8.005,3.153 12.072,0 30.452,-16.937 35.889,-30.064 3.58,-8.643 0.617,-13.431 -1.468,-15.515 L -128.045,209.744 37.282,44.416 C 39.172,42.526 41.908,38.31 39,31.293 33.528,18.088 9.429,0 0.002,0 Z"
             inkscape:connector-curvature="0" /></g><g
           transform="translate(88.71,461.792)"
           id="g23306"><path
             id="path23308"
             style="fill:#ffffff;fill-opacity:1;fill-rule:nonzero;stroke:none"
             d="M 0,0 161.792,-161.792 0,-323.584 c -2.231,-2.231 47.271,-51.726 49.498,-49.498 L 211.29,-211.29 373.082,-373.082 c 2.228,-2.228 51.73,47.267 49.498,49.498 L 260.788,-161.792 422.58,0 c 2.389,2.389 -46.477,52.518 -49.498,49.498 L 211.29,-112.295 49.498,49.498 C 46.479,52.517 -2.389,2.389 0,0 m 384.623,44.114 c 13.091,0 39.483,-28.446 30.886,-37.043 L 246.645,-161.792 415.509,-330.655 c 9.048,-9.048 -24.846,-35.882 -33.746,-35.882 -0.703,0 -1.252,0.169 -1.61,0.526 L 211.29,-197.147 42.427,-366.011 c -0.358,-0.358 -0.906,-0.526 -1.61,-0.526 -8.902,0 -42.793,26.834 -33.746,35.882 L 175.935,-161.792 7.071,7.071 c -8.597,8.598 17.795,37.046 30.886,37.043 1.773,0 3.305,-0.522 4.47,-1.687 L 211.29,-126.437 380.153,42.427 c 1.166,1.165 2.696,1.687 4.47,1.687"
             inkscape:connector-curvature="0" /></g><g
           transform="translate(300,580)"
           id="g23310"><path
             id="path23312"
             style="fill:#e34e61;fill-opacity:1;fill-rule:nonzero;stroke:none"
             d="m 0,0 c -37.793,0 -74.463,-7.405 -108.994,-22.011 -33.344,-14.102 -63.286,-34.29 -88.996,-59.999 -25.709,-25.71 -45.897,-55.652 -59.999,-88.997 C -272.595,-205.536 -280,-242.207 -280,-280 c 0,-37.793 7.405,-74.464 22.011,-108.993 14.102,-33.345 34.29,-63.287 59.999,-88.997 25.71,-25.709 55.652,-45.896 88.996,-59.999 C -74.463,-552.595 -37.793,-560 0,-560 c 37.793,0 74.463,7.405 108.994,22.011 33.344,14.103 63.286,34.29 88.996,59.999 25.709,25.71 45.897,55.652 60,88.997 14.605,34.529 22.01,71.2 22.01,108.993 0,37.793 -7.405,74.464 -22.01,108.993 -14.103,33.345 -34.291,63.287 -60,88.997 -25.71,25.709 -55.652,45.897 -88.996,59.999 C 74.463,-7.405 37.793,0 0,0 m 0,-16 c 145.803,0 264,-118.196 264,-264 0,-145.803 -118.197,-264 -264,-264 -145.803,0 -264,118.197 -264,264 0,145.804 118.197,264 264,264"
             inkscape:connector-curvature="0" /></g></g></g></g></svg>